<svg id="Layer_1" data-name="Layer 1" xmlns="http://www.w3.org/2000/svg" viewBox="0 0 1102.58 1092.98"><defs><style>.cls-1{fill:#2d6664;}.cls-2{fill:#2e6664;}.cls-3{fill:#346a69;}.cls-4{fill:#346a68;}.cls-5{fill:#326967;}</style></defs><path class="cls-1" d="M936.18-9c29.06-.47,58.13-.46,87.17-1.52,36.67-1.34,73.36-1.23,110-2.6,20.43-.77,40.64,1.27,60.7,4.84,22.69,4,45.4,8,68,12.51,28.39,5.71,54.33,17.74,79.74,31.33,18.75,10,36.89,21,55.43,31.38,8.59,4.8,16.35,10.84,24,16.95,13.82,11,25.91,23.89,37.42,37.21,9.83,11.37,16.58,24.75,21.63,38.83,7.91,22,15.18,44.3,19.76,67.32,3.2,16.06,4.67,32.34,5.87,48.64,1.65,22.63,4.11,45.21,5,67.9.45,10.88,1.06,21.76,1.46,32.65,1.59,43.58,1.32,87.16.72,130.75q-1.38,99.45,0,198.88a562.77,562.77,0,0,1-3.39,74c-2,17.12-3.56,34.3-5.63,51.43-6.27,51.93-26.71,97.68-59.76,138-9.91,12.09-20.08,23.9-31.78,34.36a162.86,162.86,0,0,1-34.5,23.61c-22.08,11.3-45.23,19.55-69.18,25.91a556.76,556.76,0,0,1-85.51,16.06c-11,1.13-22.11,1.48-33.14,2.44-33.67,2.93-67.44,3.63-101.19,4.71-57,1.83-114,1.65-171.07,2.12q-34.07.27-68.11.91a811.53,811.53,0,0,1-105.47-5.13c-16.59-1.87-33.25-3.37-50-3.73-39.8-.88-76.8-12-112.23-29.62-19.24-9.6-37.77-20.1-54.52-33.7-9-7.32-18.64-13.89-28-20.8q-42-31.08-56.25-81.34c-8.64-30.45-15-61.25-16.66-93q-3.58-68.58-4.23-137.22c-.4-41-2.16-82.06-5.57-123q-5.75-68.73-6-137.67c-.14-39.81,1.64-79.53,7.49-119,5.69-38.31,14.1-76,27.87-112.32,11.32-29.87,27.75-56.29,50.88-78.36,26.56-25.33,53.8-49.89,83.84-71.13a264,264,0,0,1,95-42c14.41-3.27,29.15-3.9,43.86-4.16,29.07-.53,58.1.83,87.1,2.79,2.17.14,4.35.32,6.53.33C854.45-9.16,895.32-8.47,936.18-9Zm496.28,547.06c.65-23.43.56-56.67.78-89.9.25-36.7-1.14-73.35-3.16-110-1.06-19.23-3.62-38.34-4.43-57.57-1.36-32.34-9.91-63-20.88-93.11-2.3-6.31-5.17-12.48-9.84-17.45-6.22-6.61-12.56-13.12-19.15-19.36a105,105,0,0,0-19.14-14.35q-33.32-19.61-67.58-37.52a174.78,174.78,0,0,0-47-16.52c-14.4-2.91-28.91-5.27-43.31-8.17-24.26-4.87-48.67-8.28-73.54-6.72-17.23,1.07-34.5.73-51.75,1-4.53.07-9.08,0-13.61.23-35.92,1.9-71.89,1.66-107.84,2.55-33.4.82-66.83.49-100.24.15-19.07-.19-38.14-.22-57.19-1.26-27.74-1.53-55.45-3.33-83.26-1.86-12.45.67-24.51,2.72-36.11,7.31-4.55,1.8-9.07,3.69-13.52,5.74-12,5.55-24.2,10.61-35,18.52-26.78,19.53-51.42,41.5-75.19,64.5-12.18,11.78-21,25.81-27.44,41.49-13.39,32.65-20.68,66.85-25.89,101.55-3.43,22.82-5.06,45.82-5.95,68.88-1.65,42.7-.42,85.35,2,128,1.57,27.73,4,55.41,5.83,83.13,2.19,33.35,2.86,66.77,3.18,100.18q.62,62.94,4.4,125.74C509,838,514.69,862,521.65,885.67a67.17,67.17,0,0,0,25.27,35.84c14.44,10.71,28.77,21.56,43.23,32.24a72.29,72.29,0,0,0,9.72,6q12.81,6.62,25.81,12.9a173,173,0,0,0,72.93,17.76c16.34.33,32.65,1.74,48.89,3.56,31.79,3.55,63.64,5.75,95.65,5.3,38.32-.54,76.64-1.12,115-1.22,67.75-.18,135.48-1.13,203.14-4.69,17-.9,34.06-2.27,51.06-3.76,25.19-2.2,49.88-7.14,74.34-13.58,19.19-5.06,37.87-11.33,55.51-20.53a73.15,73.15,0,0,0,16.57-11.33,232.08,232.08,0,0,0,49.88-66.88,152.82,152.82,0,0,0,11.57-33.35c3.53-15.26,5.4-30.74,6.92-46.28,2-20.41,4.5-40.76,5.29-61.3s.08-41-.07-61.55C1432,632.48,1431.73,590.16,1432.46,538.05Z" transform="translate(-411.04 13.29)"/><path class="cls-1" d="M1250.88,534.15c0,138.63-92.88,257.18-222.55,288.42-140.79,33.92-281.39-43.1-328.7-180.2-14.21-41.16-19-83.54-13.22-126.71,12.66-95.28,60.2-168.41,142.28-218.28,49.78-30.24,104.49-43,162.64-39.15,112.85,7.45,208.47,81.54,244.58,188.79A284.79,284.79,0,0,1,1250.88,534.15ZM961.71,750.24a212.77,212.77,0,0,0,47.48-5.73c113.94-28,183.91-144.41,154.57-258-27.37-105.92-131.36-167.92-236.54-143.14-113.61,26.76-183.9,141.79-156.71,255.32C791.8,687.58,870.74,750.14,961.71,750.24Z" transform="translate(-411.04 13.29)"/><path class="cls-2" d="M1299,236.53c-.11,22.55-18.62,41-41,40.83-22.53-.15-40.43-18.93-40.19-42.17a40,40,0,0,1,40.51-39.79A41.07,41.07,0,0,1,1299,236.53Z" transform="translate(-411.04 13.29)"/><path class="cls-3" d="M887.1,689.12c-13.78-.37-25.91-4.88-34.27-17a35.71,35.71,0,0,1-6.13-22.65c.2-4,2.52-6.51,5.84-6.47s5.5,2.54,5.58,6.65a34.49,34.49,0,0,0,1.2,9.66c3.19,10.2,12.32,17,24.15,18a56.28,56.28,0,0,0,10.3-.24c4.24-.4,6.85,1.29,7.38,4.56s-1.77,6-6.12,6.72c-1.25.21-2.51.38-3.77.49S888.73,689.05,887.1,689.12Z" transform="translate(-411.04 13.29)"/><path class="cls-4" d="M953.29,675.41a11.17,11.17,0,0,1-11.41-10.75,10,10,0,0,1,9.91-10.13,11.26,11.26,0,0,1,11.4,10.8A9.82,9.82,0,0,1,953.29,675.41Z" transform="translate(-411.04 13.29)"/><path class="cls-5" d="M869,596.79c0,5.85-4.15,10.38-9.51,10.35-5.71,0-10.52-5.45-10.4-11.68.11-5.65,4-9.89,9.29-10C864.14,585.31,868.94,590.42,869,596.79Z" transform="translate(-411.04 13.29)"/></svg>