<svg id="Layer_1" data-name="Layer 1" xmlns="http://www.w3.org/2000/svg" viewBox="0 0 1097.82 1057.37"><defs><style>.cls-1{fill:#2d6664;}.cls-2{fill:#2f6765;}.cls-3{fill:#2e6765;}.cls-4{fill:#386e6c;}.cls-5{fill:#3c706e;}.cls-6{fill:#437472;}</style></defs><path class="cls-1" d="M962.69,1075.87q-207.06,0-414.12,0c-31.24,0-62.48-.2-93.72-.23-14.17,0-25.2-6.05-33.53-17.2-5.18-6.94-7.06-15-7.05-23.59q.09-60.75.12-121.51c.17-146.35-.11-816.26,1-833.69,0-.24.26-4,.47-9.16.14-3.59.2-6.15.21-6.56C416.79,36.53,432.34,26,432.34,26a39.88,39.88,0,0,1,22.09-6.53h3.27q505.94.57,1011.88,1.11c6.05,0,19.64.67,29.13,10,7,6.83,9.72,17.91,10.72,21.62.75,2.81,1.7,7.09,2.28,16.3a189.21,189.21,0,0,1-.31,28.6c-2.12,20.35-.35,173.29-.47,280.62q-.35,326.4-.64,652.79c0,5.08.22,10.15-.71,15.21a37.92,37.92,0,0,1-34.14,30.95,63,63,0,0,1-7.63.17C1453.35,1075.32,1310.63,1074.79,962.69,1075.87Zm-.38-76.33v.88h464.23c8.73,0,7.47.92,7.48-7.53q.42-344.36.8-688.71.12-100,.24-200c0-8.11,1.17-7.32-7.16-7.33q-205.15-.19-410.29-.38-259.08-.3-518.17-.68c-1.64,0-3.27.05-4.9,0-2.05-.07-3,.81-2.89,2.91.07,1.09,0,2.18,0,3.27q-.52,445.42-1,890.86c0,1.27.05,2.54,0,3.81-.06,1.8.73,2.7,2.56,2.68,1.09,0,2.18,0,3.26,0,18.17.06,36.33.17,54.49.17Q756.63,999.56,962.31,999.54Z" transform="translate(-414.27 -19.47)"/><path class="cls-2" d="M1012.48,422.51a20.78,20.78,0,0,0,2-1.31c22.37-20.68,49.22-32.35,78.52-39.09a181,181,0,0,1,35.07-4.38c23.1-.74,46.12,0,68.75,5.38,28.19,6.71,54.4,17.92,78.2,34.56,27.5,19.21,46.19,45.06,58.93,75.89,10.51,25.46,15,52.2,19.43,79.07,3.08,18.82,5.6,37.69,7.12,56.71,1.09,13.76,1.1,27.57,1.89,41.35,1.47,25.75,1.51,51.54,2.25,77.32,1.2,41.38,2.41,82.77,2.37,124.17,0,18.16-.22,36.33-1.6,54.44a79,79,0,0,1-4.06,19.69c-3.07,9-9.7,14.15-19.15,14.24-24,.24-47.93.67-71.9-.55-9.25-.47-18.47-1-27.69-1.92a34.31,34.31,0,0,0-10.83.7c-12.48,2.77-25.25,2.67-37.84,4.22a77,77,0,0,1-11.93,1c-12.47-.41-21-7.51-22.9-19.81a151.26,151.26,0,0,1-1.68-20.61c-.44-28-2-55.91-1-83.87.92-23.79,0-47.61,1.29-71.35,1.63-31.4,2.06-62.8,2.09-94.21,0-23.49-1.87-46.8-9.09-69.38-1.21-3.79-2.66-7.52-4-11.27-5.61-15.66-17.26-23.41-33.24-26a92,92,0,0,0-46.64,4.14c-7.64,2.73-13.82,7.16-18.07,14.1a117.49,117.49,0,0,0-15.76,42.6c-4.4,26.36-6.8,52.91-8.49,79.55-1.62,25.55-3,51.11-3.92,76.69-.65,18.89-.27,37.77-.6,56.66-.32,18.34-.59,36.69.19,55,.56,12.86.85,25.75,2.92,38.51,2.29,14.09-9.06,24.3-21.34,24.28-39.22-.09-78.45.46-117.68.75-13.08.09-26.15,0-39.23.28-7.85.14-14.22-2.38-18.75-9a17,17,0,0,0-3.6-3.28,19.56,19.56,0,0,1-7.54-15.63c0-1.63,0-3.27,0-4.9q-.63-178.44-1.27-356.87c-.2-51.94-.36-103.88-.84-155.82-.07-8.19,2.62-14.86,7.45-21,4.5-5.73,10.58-7.9,17.72-7.89,18.15,0,36.31.35,54.44-.63,23.23-1.27,46.47-1.25,69.71-.71,7.44.17,14.88.54,22.31.88a31.81,31.81,0,0,1,4.86.61c13.25,2.68,20.17,10.19,21.77,23.63C1011.67,413.63,1012,417.76,1012.48,422.51ZM853.59,673h.67q0,81.46,0,162.92c0,26.34.16,52.67.25,79,0,5.91-.36,5.56,5.68,5.52,10-.06,20-.08,30-.2,8.37-.11,7.47,1.15,7.44-7.63q-.36-146.85-.76-293.7a51.93,51.93,0,0,1,.13-5.44,2.43,2.43,0,0,1,4.72-.26,21.22,21.22,0,0,1,.35,4.3q.08,18.53.11,37.05l.51,259.92c0,5.68,0,5.73,5.58,5.69,9.26-.08,18.52-.23,27.78-.32,13.63-.13,27.25-.22,40.87-.35,5,0,5-.07,4.66-5.24-.2-2.9-.41-5.8-.56-8.7-1.39-28.68-.42-57.38-.23-86.07.09-13.62-.12-27.25.46-40.86q1.47-35.08,3.68-70.16c2-31,4.56-61.92,10.17-92.5a141.88,141.88,0,0,1,22.72-55c8.78-12.87,21-21.35,35.58-26.65a130.2,130.2,0,0,1,65.43-6.12c11.41,1.77,22.36,4.67,32.21,11,15,9.59,26.45,22,32.44,39,1.44,4.1,3,8.16,4.45,12.27,8.34,24.33,10.89,49.62,11.61,75.07.52,18.68-.18,37.41-.38,56.11-.29,27.42-2.23,54.78-2.45,82.22-.3,36.14-1.28,72.27.06,108.4.09,2.36.13,4.73,0,7.08s.64,3.29,3.12,3.14a152.74,152.74,0,0,0,17.33-1.63c12.18-2.17,24.4-3.94,36.77-1.34a40.64,40.64,0,0,0,5.42.58c5.07.36,5.27.21,5.57-4.73.24-4,.32-8,.52-12,2.37-47.18,3.44-94.37,2.38-141.61-1.08-48-3.52-95.81-10.31-143.35-2.72-19.06-6.16-38-12-56.38-2.37-7.46-5.12-14.76-9.36-21.39-2.28-3.56-4.84-6.88-9.14-8.16-1.89-.56-3.77-1.24-2.94-3.6.77-2.17,2.74-1.89,4.64-1.36a15.79,15.79,0,0,1,6.53,3.78,38,38,0,0,1,7.19,9.52,97.07,97.07,0,0,1,7.56,18c9,28.36,13,57.68,16.23,87.1,2.29,20.57,3.72,41.22,4.84,61.9,1.87,34.47,2.48,69,2.24,103.48-.23,35.06-1.15,70.1-3.35,105.09-.23,3.64-.16,3.79,3.34,3.93,16.34.65,32.68,1.1,49,.75,3.64-.08,3.73-.19,3.93-4.19.35-7.07.73-14.15.85-21.23q.79-45.49-.59-91c-1-34.85-1.6-69.72-2.56-104.58-.49-18.14-1.43-36.28-2.1-54.42-.4-10.72-1.76-21.35-2.65-32-1.2-14.31-3.94-28.41-6.22-42.55-3.55-22-7.7-43.89-16.58-64.68-9.66-22.59-23.3-41.75-43.48-56-20.46-14.45-43.13-23.84-67.46-29.33-17.3-3.9-34.9-4.6-52.54-4.14a159.47,159.47,0,0,0-62.26,14c-17.26,7.82-31.61,19.12-42.65,34.57-4,5.62-7.67,11.46-11.15,17.42a71.28,71.28,0,0,1-5.81,9.19c-5.51,6.83-12.77,9.62-21.33,7.35-8.34-2.21-13.16-8-14.58-16.53a66.91,66.91,0,0,1-.73-8.13c-.59-15.42-1.44-30.84-1.51-46.28,0-4.17-.15-4.12-4.25-4.34-14.88-.81-29.77-.91-44.67-.71-22.51.29-45,2.44-67.5,1.81-.37,0-.73,0-1.09,0-2.12-.16-2.92.87-2.86,2.93q.17,6.52.17,13.07Q853.18,557.21,853.59,673Z" transform="translate(-414.27 -19.47)"/><path class="cls-3" d="M746.38,672.18q-.5,129.93-1,259.86c0,2.9.11,5.79-.86,8.62-2.65,7.74-7.9,12.46-16,13.77a42.67,42.67,0,0,1-7.06.36q-76-.27-152-.59a38.49,38.49,0,0,1-7.05-.38c-9.86-1.92-16.14-10-16.15-21,0-15.44.16-30.88.22-46.31l.63-166.71q.57-154.44,1.13-308.89c0-1.64-.06-3.28.07-4.9.83-10.29,9.3-18.47,19.52-18.28,5.26.1,10.49-.16,15.74-.13,47.21.28,94.43.72,141.64.56,13.08,0,22.35,9.05,22.26,22.47q-.86,130.74-1.21,261.49ZM706,728.35h1.24q0-90.18,0-180.35c0-7.77,1-6.8-7.05-6.8q-17.17,0-34.33.15-36.51.28-73,.6c-6.15,0-5.43,0-5.48,5.77,0,.55,0,1.09,0,1.64q-.32,76-.64,152-.33,95.36-.58,190.71c0,6.17-.06,12.35,0,18.52,0,4,.09,4.12,3.76,4.14q25.33.12,50.67.14c3.83,0,3.91-.1,4-4q.18-10.9.23-21.8l1.2-280.6c0-1.27,0-2.55,0-3.82,0-1.58.54-3,2.33-3.1,2.15-.08,2.6,1.58,2.64,3.34,0,1.46,0,2.91,0,4.36q-.19,57.76-.4,115.52-.4,92.36-.89,184.71c0,5.65-.32,5.43,5.23,5.44q22.89,0,45.77.13c5.85,0,5.29.17,5.31-5.3,0-.91,0-1.82,0-2.72ZM647.32,536.74v-.57c6.35,0,12.71,0,19.06,0q17.72-.09,35.41-.23c5.43,0,5.44,0,5.48-5.18,0-3.81,0-7.63,0-11.44q.12-43.3.21-86.62c0-4.8,0-4.8-4.63-4.88h-1.63l-107.86-.3c-.73,0-1.46.05-2.18,0-2.45-.22-3.86.59-3.58,3.32a19.65,19.65,0,0,1,0,2.17q-.12,49.3-.24,98.6c0,5.16,0,5.16,5.46,5.16Z" transform="translate(-414.27 -19.47)"/><path class="cls-2" d="M650,122.1c64.43-.14,117,52.18,117.11,116.55A116.87,116.87,0,0,1,650.26,356c-64.54.05-117.07-52.18-117.18-116.51A117.08,117.08,0,0,1,650,122.1Zm-66.65,79c-14.57,22.51-16,61.74,9.45,89.89,24.11,26.65,62.85,31.75,89.43,17.9-5.52-6.81-10.74-13.73-16.51-20.16-2.29-2.54-2.36-4.4-1-7.17,3.69-7.69,7.17-15.48,10.8-23.2.88-1.88,1.32-3.37-.19-5.4-2.66-3.59-1.92-7.51-.06-11.34.58-1.18,2.23-2,1.56-3.81a21,21,0,0,0-2.11-.45,297,297,0,0,1-37.45-6.83C624,227.25,611,223.24,599,216.44,592.65,212.8,587,208.38,583.3,201.11Zm68.52-39.55c-25.31.67-45.22,9.57-60.86,27.66-3.87,4.47-3.93,9-.38,13.76a29.19,29.19,0,0,0,7.7,6.83,88.14,88.14,0,0,0,18.06,8.84c21.42,7.95,43.7,12,66.31,14.48a10.5,10.5,0,0,0,6.23-1.37,176.24,176.24,0,0,0,29-18.3c4.17-3.31,4.27-3.37,1.93-7.93C705.27,177.23,681.74,163.2,651.82,161.56Zm40.93,74.21c4.38,5.12,4.55,10.17,1,15.23-1.27,1.83-.26,3,.69,4.34,3.26,4.58,6.29,9.33,9.84,13.67,2.88,3.51,3.24,6.86,1.72,11a122.17,122.17,0,0,0-5.13,16.79c25.65-20.06,32.17-60.39,22-80.78C713.67,223.72,703.52,229.91,692.75,235.77ZM687,256.38c-4.54.16-5.13.58-7.18,5-3.05,6.58-6,13.21-9.2,19.71-1.22,2.47-.93,4.22.81,6.29,4.56,5.4,8.9,11,13.37,16.48,2.64,3.23,2.7,3.12,6.11,1a7.21,7.21,0,0,0,3-4.3c2.4-7.6,4.73-15.23,7.24-22.8a5,5,0,0,0-.73-5.05c-3.53-4.83-7-9.72-10.46-14.59C689.27,257,688.62,255.87,687,256.38Zm3.93-12.23a4.17,4.17,0,0,0-4.73-4.57c-3.52.34-7.16,4.16-7.32,7.66-.12,2.55,1.25,4.23,3.65,4.5,3.37.38,7.47-2.84,8.25-6.52A9.5,9.5,0,0,0,690.94,244.15Z" transform="translate(-414.27 -19.47)"/><path class="cls-4" d="M941.62,534.78c0,5.19-2.78,7.81-7.55,7.47-.37,0-.73-.06-1.08-.12-8.73-1.49-20.7-14.34-21.57-23.13-.52-5.36,3-8.59,8.37-7.71a15.65,15.65,0,0,1,5.57,2A37.44,37.44,0,0,1,939.51,528,14.76,14.76,0,0,1,941.62,534.78Zm-20.9-8.62c.16-3.55,2.57-4.86,3.8-6.85a10.11,10.11,0,0,0-5-2.78c-2.17-.61-3.26.33-2.79,2.46A13.52,13.52,0,0,0,920.72,526.16Zm12.56,2a18.81,18.81,0,0,1-5.76,5,10.49,10.49,0,0,0,6.26,3.68c1.82.42,2.76-.4,2.5-2.33A12.74,12.74,0,0,0,933.28,528.13Z" transform="translate(-414.27 -19.47)"/><path class="cls-4" d="M898.54,498.12c.07,3.71-2.23,5.62-6,4.94a11.93,11.93,0,0,1-4.84-2.34A56.6,56.6,0,0,1,871,481.14a12.82,12.82,0,0,1-1.56-5.15c-.29-4.59,2.46-6.72,6.87-5.18a13.71,13.71,0,0,1,3.35,1.75,55.46,55.46,0,0,1,17.42,20.37A16,16,0,0,1,898.54,498.12Zm-10.08-9.07c-2.2,1.54-3.53,2.94-.88,5,1.5,1.15,2.82,2.61,5.33,3.2A19.63,19.63,0,0,0,888.46,489.05ZM875.35,476.4c-.15,2.6,1.31,4.05,2.19,5.71.65,1.2,1.43,1.93,2.87.68,1.25-1.07,1.4-1.91.13-3C879.05,478.58,877.68,477.16,875.35,476.4Z" transform="translate(-414.27 -19.47)"/><path class="cls-5" d="M978.09,558.54A20.73,20.73,0,0,1,973,571.38c-5.84,6.74-18.66,11-29.07,3.5-1.77-1.27-3.43-2.57-2-4.79s3.24-1.49,5,.08c8.44,7.55,23.14,1.41,25.27-8.5.15-.71.38-1.4.46-2.12.55-5-2.37-8.68-7.5-9-1.89-.13-3.34-.54-3.4-2.55s1.53-2.73,3.28-2.91a10.15,10.15,0,0,1,8.05,2.44A14.83,14.83,0,0,1,978.09,558.54Z" transform="translate(-414.27 -19.47)"/><path class="cls-5" d="M857.49,523.64a4.19,4.19,0,0,1,.75-2.3c.81-1.07,1.77-1.88,3.2-1.42a2.15,2.15,0,0,1,1.72,2.45c-1.06,4.72,2.12,7.5,4.84,10.28,9.75,10,21.42,17.16,34.21,22.59,1.17.5,2.41.83,3.53,1.4s2,1.64,1.53,3.09a2.63,2.63,0,0,1-3.46,1.78,19.88,19.88,0,0,1-2.57-.86,109.07,109.07,0,0,1-37.39-24.6,31.91,31.91,0,0,1-5-6.44A10.24,10.24,0,0,1,857.49,523.64Z" transform="translate(-414.27 -19.47)"/><path class="cls-6" d="M887.16,528.15a2.4,2.4,0,0,1-3.84,2.07,37,37,0,0,1-7.92-8.88c-1.07-1.71.68-3.82,2.63-3.53C879.81,518.08,887.13,526.36,887.16,528.15Z" transform="translate(-414.27 -19.47)"/><path class="cls-5" d="M651.67,514.58c-7.35-.29-13.87-.65-20.26-2.09-2-.44-5-.51-4.47-3.58s3.14-2.06,5.28-1.67C642.07,509,652,510,662,508.74c2.87-.36,5.8-.44,8.13-2.56a2.32,2.32,0,0,1,3.76.39c1,1.37.61,2.74-.46,3.94a9.11,9.11,0,0,1-4.73,2.49C662.82,514.51,656.83,514.47,651.67,514.58Z" transform="translate(-414.27 -19.47)"/><path class="cls-5" d="M676,483.66a3.92,3.92,0,0,1-4.09-4,3.84,3.84,0,0,1,4.18-3.9,4.05,4.05,0,0,1,3.81,4.31A3.8,3.8,0,0,1,676,483.66Z" transform="translate(-414.27 -19.47)"/><path class="cls-6" d="M616.11,484.81a4.2,4.2,0,0,1-3.93-4.35,3.42,3.42,0,0,1,3.45-3.47,4.25,4.25,0,0,1,4.25,4.06A3.73,3.73,0,0,1,616.11,484.81Z" transform="translate(-414.27 -19.47)"/><path class="cls-5" d="M677.59,212.64A135.78,135.78,0,0,1,656,210.52c-1.93-.37-5-.21-4.47-3.44s3.17-2.08,5.24-1.76a125.46,125.46,0,0,0,29.73,1.61c6-.47,11.89-1.16,17.32-4,1.66-.86,3.2-1,4.16.84s-.27,3.08-1.78,3.93c-4.84,2.72-10.22,3.6-15.61,4.2C686.28,212.39,681.93,212.41,677.59,212.64Z" transform="translate(-414.27 -19.47)"/><path class="cls-6" d="M653.18,195.58a13.93,13.93,0,0,0-6.88.86c-1.69.7-3.33.58-4.09-1.29s.55-3,2.14-3.73c4.32-1.89,8.8-1.55,13.26-.71a2.55,2.55,0,0,1,2.18,3.19,2.48,2.48,0,0,1-2.84,1.93C655.69,195.78,654.44,195.66,653.18,195.58Z" transform="translate(-414.27 -19.47)"/><path class="cls-6" d="M693.05,194.75c-2.19,0-3.65.11-5.08,0a2.42,2.42,0,0,1-.45-4.68,31.38,31.38,0,0,1,11.3-.67,2.2,2.2,0,0,1,1.81,2.38,2.32,2.32,0,0,1-1.86,2.39C696.65,194.51,694.47,194.61,693.05,194.75Z" transform="translate(-414.27 -19.47)"/><path class="cls-1" d="M1596.81,330.68" transform="translate(-414.27 -19.47)"/><path class="cls-1" d="M823.54,1454.24" transform="translate(-414.27 -19.47)"/></svg>