<svg id="Layer_1" data-name="Layer 1" xmlns="http://www.w3.org/2000/svg" viewBox="0 0 1025.25 466.38"><defs><style>.cls-1{fill:#2d6664;}.cls-2{fill:#2e6664;}.cls-3{fill:#2e6665;}.cls-4{fill:#2e6765;}.cls-5{fill:#3d716f;}.cls-6{fill:#407371;}.cls-7{fill:#3e7270;}</style></defs><path class="cls-1" d="M1094.67,276.42a202.25,202.25,0,0,1,62.84,9.76,199.8,199.8,0,0,1,23.63,9.78c19.68,9.35,39,19.27,57,31.72a176.56,176.56,0,0,1,47.19,48.51,266,266,0,0,1,25.34,48.71c1.19,3,2.67,4,5.88,4,33,.9,64.81,8.08,93.66,23.75,40.42,22,68.1,54.91,77.29,101.26,3.57,18,6.53,36.09,7,54.48.63,22.62-.55,45.09-8.13,66.65s-19.49,40-38.51,53.46c-14.14,10-29.77,13.75-46.85,12.32-2.89-.24-5.8-.36-8.7-.35q-148.19.76-296.37,1.58c-25.43.15-50.85.32-76.27.66a44.7,44.7,0,0,1-24.35-6.53c-6.36-3.85-12.9-7.42-19.33-11.18-13-7.6-19.59-19-19.91-34-.15-7.08-.17-14.16-.24-21.24q-.78-75.18-1.57-150.36-1-88-2-176a54.13,54.13,0,0,1,.5-10.87c2.29-11.94,8.63-21.05,19.34-26.9,3.83-2.09,7.52-4.37,11.23-6.65A141.7,141.7,0,0,1,1047,278.38,456.26,456.26,0,0,1,1094.67,276.42Zm-38.43,77a76.06,76.06,0,0,0-23.9,5.4c-4.28,1.72-4.28,1.71-4.22,6.29q.68,52,1.33,104.06,1.13,95.35,2.22,190.69c.09,7.93-1.09,6.95,7,6.91q143.56-.74,287.14-1.55c26.15-.16,52.31-.13,78.45-1.07a5.64,5.64,0,0,0,5.26-2.9c3.39-5.45,6.14-11.15,7.21-17.51a155.24,155.24,0,0,0,2.32-25.47c0-17.9-2.6-35.5-6.69-52.83-5.29-22.48-20.44-37.06-40.27-47.26-9.23-4.75-19.34-7.31-29.4-9.71-14.38-3.44-28.84-5.93-43.46-1a25.82,25.82,0,0,1-3.19.69c-18.85,3.52-36.25-5-45-22.09a53,53,0,0,1-5-13.78c-4-20.14-13.43-37.93-24.3-55a95.68,95.68,0,0,0-26.85-27.5c-13.68-9.38-28.6-16.46-43.23-24.12-21.95-11.49-45.5-14.13-69.74-13.7a22.32,22.32,0,0,0-11.71,3.75c-9.69,6-14.89,15.25-18.46,25.51-6.73,19.28-4.62,38.24,2.77,56.92a12.49,12.49,0,0,0,5.84,6.71c9,5.08,14,16.48,12.07,26.62-1.61,8.7-9.31,13.28-17.5,10.41-11.7-4.09-19-21.21-13.31-32.22a10.73,10.73,0,0,0,.77-8.7c-4.35-15-6.3-30.21-4.82-45.78,1.22-12.88,4.86-24.92,13.22-35.15C1052.32,358.09,1053.93,356.19,1056.24,353.41Z" transform="translate(-469.48 -276.37)"/><path class="cls-2" d="M798.15,536c-.29,31.14-.53,52.75-1.42,74.35-1.22,29.59-2.81,59.14-6.74,88.51a138.72,138.72,0,0,1-4.25,21.34,36,36,0,0,1-3.58,8.51c-6.8,11.06-20.83,11.19-27.8.25a32.14,32.14,0,0,1-3.73-9c-2.94-10.73-4.19-21.75-5.15-32.77-5.1-58.9-5.22-117.91-3.66-176.95.75-28.33,2-56.63,4.76-84.84,1.47-15.16,2.74-30.39,7.35-45.07a26.84,26.84,0,0,1,4.62-9.18c6.76-8.29,18.29-8.2,24.94.19,2.88,3.64,4.36,7.93,5.45,12.36,3,12.39,4.28,25.06,5.33,37.72C797.7,462.7,798.15,504.11,798.15,536Z" transform="translate(-469.48 -276.37)"/><path class="cls-2" d="M732.47,580.22c.28,32.7-.38,65.37-3.5,97.95-1.12,11.74-2.53,23.46-5.36,35a52.85,52.85,0,0,1-4.34,12.29c-3.34,6.29-8,10.76-15.63,11-7.86.25-12.89-4.1-16.52-10.49-3.08-5.42-4.66-11.4-6.06-17.42-4-17-5.9-34.34-7.45-51.7-3.41-38.19-4.68-76.47-4.35-114.81.24-28.34,1.25-56.64,4.3-84.84,1.13-10.46,2.57-20.89,5.36-31.08a45.83,45.83,0,0,1,3.9-10.14c3.46-6.29,8.42-10.61,15.92-10.6s12.51,4.27,16,10.56,5.2,13.15,6.68,20.08c4,18.68,6,37.64,7.51,56.64Q732.44,536.34,732.47,580.22Z" transform="translate(-469.48 -276.37)"/><path class="cls-2" d="M933.3,532c-.13,44.52-.94,85.72-3.93,126.85-1.29,17.73-2.78,35.47-6.33,52.94a52.55,52.55,0,0,1-4.16,13.48c-2.35,4.65-5.72,8-11.33,8-5.85.09-9.43-3.24-11.8-8.14-3.12-6.45-4.22-13.47-5.38-20.45a493.49,493.49,0,0,1-5.26-50.89c-3.13-50.95-4-101.95-3-153,.59-30.31,1.6-60.61,4-90.85,1.33-16.64,2.79-33.28,6.34-49.64A51.54,51.54,0,0,1,895.64,350c2.38-5.29,5.84-9.26,12.18-9.29,5.39,0,10,3.67,12.37,9.87,2.67,7,3.93,14.33,5,21.69,3.78,25.54,5.16,51.28,6.37,77C932.93,477.91,933.14,506.6,933.3,532Z" transform="translate(-469.48 -276.37)"/><path class="cls-3" d="M861.47,572.91c.09,35.42-.32,70.83-2.88,106.18-1,13.39-2.07,26.8-5.21,39.92a31.31,31.31,0,0,1-3.41,9.14c-5.19,8.55-15.5,8.65-20.91.19-2.18-3.42-3.23-7.28-4.16-11.17-3.46-14.34-5-29-6.28-43.63-4.72-54.69-6.08-109.51-5.24-164.38.42-27.24,1.22-54.48,4.08-81.6,1-9.72,1.66-19.57,5.51-28.77a46.64,46.64,0,0,1,2.79-5.89c3.64-6.09,10.81-7.35,16.39-3a18.52,18.52,0,0,1,5.85,9c2.74,7.94,4,16.2,5.15,24.47,3.85,28.46,5.46,57.1,6.74,85.77C860.85,530.42,861,551.67,861.47,572.91Z" transform="translate(-469.48 -276.37)"/><path class="cls-2" d="M605.91,604.37a708.54,708.54,0,0,1,4.42-84.8c1.14-9.74,2.48-19.46,5.63-28.8,2-5.83,4.89-10.86,11.08-13.34,7.77-3.11,14.74-1.26,19.6,5.62,2.66,3.78,4,8.1,5.08,12.53,3.25,13.84,4.42,28,5.35,42.09,2,30.1,2.13,60.24,1.09,90.38-.84,24.5-2.18,49-6.43,73.18a78.75,78.75,0,0,1-3.28,13.19,38,38,0,0,1-2.36,5.48c-3.3,6-8.11,9.84-15.22,9.71S619.09,725.4,616,719.36c-2.6-5.06-3.77-10.58-4.72-16.14C607.49,681,606.51,658.47,606,636,605.69,625.44,605.91,614.9,605.91,604.37Z" transform="translate(-469.48 -276.37)"/><path class="cls-2" d="M586.77,598.14c-.24,27.37-.62,55.86-3.79,84.22a143,143,0,0,1-3.32,19.83,30,30,0,0,1-4.22,10c-6.7,9.5-19.57,9.43-26.15-.17a32.19,32.19,0,0,1-4.45-11c-3.21-13.65-4.33-27.59-5.32-41.51-2.11-29.89-2.65-59.82-2.09-89.77.43-23,1.26-46.07,4.16-69a134.53,134.53,0,0,1,2.92-16,28.35,28.35,0,0,1,5.3-10.61c5.88-7.48,16.14-8,22.89-1.2a23.9,23.9,0,0,1,5.65,10.42C580.93,492,582,501,582.94,510,586,539,586.55,568,586.77,598.14Z" transform="translate(-469.48 -276.37)"/><path class="cls-4" d="M469.48,607.26c0-22.89,1.06-45.72,4.57-68.38a77.83,77.83,0,0,1,4.37-17.38c1.58-3.94,3.78-7.46,7.47-9.79,8.35-5.26,17.83-2.87,22.89,5.88,3.53,6.1,4.65,12.94,5.57,19.78,3.41,25.64,3.62,51.4,2.62,77.18-.65,16.88-1.78,33.71-4.77,50.37A68.39,68.39,0,0,1,509,677.54a33.36,33.36,0,0,1-2.79,5.88c-7.09,11.19-21.34,11-28.08-.43-3.1-5.26-4.25-11.16-5.18-17.08C469.82,646.47,469.44,626.88,469.48,607.26Z" transform="translate(-469.48 -276.37)"/><path class="cls-5" d="M1148.31,391.83a39.53,39.53,0,0,1-7.29,19c-8.82,12.53-20.89,20.91-34.72,27-2,.9-3.9,1.09-5.24-1-1.13-1.77-.22-3.68,2.47-5.1s5.56-2.64,8.26-4.13c8.65-4.77,16.36-10.71,22.33-18.69,4.19-5.61,7.18-11.73,7.55-18.89a14.55,14.55,0,0,1,.14-1.62,3.13,3.13,0,0,1,3.28-3c1.94,0,2.94,1.27,3.2,3.08A28.63,28.63,0,0,1,1148.31,391.83Z" transform="translate(-469.48 -276.37)"/><path class="cls-6" d="M1080.43,433.55a3.16,3.16,0,0,1-3.23-3.51,11.41,11.41,0,0,1,1.59-5.16,50.84,50.84,0,0,1,16.85-18.18,13.78,13.78,0,0,1,2.39-1.29c1.93-.81,3.64-.46,4.65,1.45.91,1.72.19,3.16-1.28,4.25-.58.42-1.25.72-1.86,1.12-7,4.58-12.62,10.33-15.65,18.28C1083.26,432.15,1082.45,433.43,1080.43,433.55Z" transform="translate(-469.48 -276.37)"/><path class="cls-7" d="M1113.34,389.76a11.32,11.32,0,0,1,1.58-4.59,35.34,35.34,0,0,1,16-14.18,13.85,13.85,0,0,1,2.58-.83c1.92-.39,3.79-.21,4.52,1.91.82,2.34-.41,3.82-2.64,4.49a25.66,25.66,0,0,0-10.47,6.6,17.86,17.86,0,0,0-5.17,8.16c-.53,2-1.84,3.13-4,2.72C1114,393.71,1113.16,392.06,1113.34,389.76Z" transform="translate(-469.48 -276.37)"/></svg>