<svg id="Layer_1" data-name="Layer 1" xmlns="http://www.w3.org/2000/svg" viewBox="0 0 992.2 826.25"><defs><style>.cls-1{fill:#2d6664;}.cls-2{fill:#316967;}</style></defs><path class="cls-1" d="M675.87,771.64a4.19,4.19,0,0,0-2.4-2.28C634,748,602,718.57,577.06,681.39q-6.37-9.5-12.43-19.2c-10.85-17.46-8.71-38.27,5.38-53.19a21,21,0,0,1,2.32-2.3c1.61-1.26,1.75-2.42.3-4-2.35-2.53-4.55-5.19-6.77-7.83-29-34.51-48.19-74.07-60.1-117.34-1.39-5.06-3-10.08-3.68-15.33-3.18-23.82,11.77-44.38,35.54-48.77a15.4,15.4,0,0,0,1.68-.48c.67-2.22-1-3.72-1.83-5.39-9.21-18.36-17.36-37.13-23.47-56.78-9.1-29.26-12.69-59.32-12.24-89.76.4-26.93,6.05-53,18.1-77.32,7.39-14.9,18.82-26.24,33.16-34.45a45.85,45.85,0,0,1,63.23,18.5c1.28,2.42,13.89,28.29,16.59,31.52,7.15,8.55,15.54,15.78,24.3,22.58,23.46,18.23,49,33.18,75.35,46.71A892.93,892.93,0,0,0,918.42,339c.87.22,1.75.36,2.93.61,1.71-5.12,1.7-10.39,2.59-15.48,10.55-60.71,38.9-111.27,86.41-150.67,27.76-23,59.36-38.73,95.06-44.59,68.76-11.3,126.46,9.26,172.39,62,3.69,4.24,7.07,8.73,11.11,12.68,4.36,4.25,6.89,9.74,9.39,15.13,2.22,0,3.38-1.58,4.75-2.65q30.95-24.1,61.81-48.31c7.15-5.62,14.89-9.46,24.06-10.62,23.71-3,46.34,15.79,47.46,39.67.7,15-4.8,27.34-16.54,36.72-10.5,8.38-21.17,16.55-31.74,24.85-1.26,1-1.35,3.58-.23,3.3,11.79-2.95,23.57-6,35.39-8.81,21.83-5.25,42.8,5.11,51,25.08A42.51,42.51,0,0,1,1446,335.32c-18.53,5.1-37.28,9.43-55.94,14.09q-23.49,5.88-47,11.75c-4.2,1.06-4.32,1.13-3.8,5.41a505.89,505.89,0,0,1,4.2,67.92c-1.65,130.92-46.48,244.94-135.4,341-66.39,71.76-147.68,120.13-240.69,149.24a598.76,598.76,0,0,1-120.93,24.27A628.35,628.35,0,0,1,742,950.67,659,659,0,0,1,513.62,893c-15.47-7-24.52-18.69-26.83-35.64-.93-6.84-2.15-13.54-1-20.54,3.28-19.42,20.36-35.46,40.05-35.16,35.11.53,68.85-7,102.48-15.59,14.42-3.66,28.64-8,42.75-12.78C672.61,772.83,674.11,772.27,675.87,771.64ZM690.13,858c1.83.42,3.38.87,5,1.12a558.26,558.26,0,0,0,62.79,6.61c49.78,2.25,99.06-1.65,147.64-13,74.94-17.48,142.62-49.76,201.83-99.27C1214.29,664.1,1269.21,530,1255.71,391.34A458.59,458.59,0,0,0,1227,271a82.73,82.73,0,0,0-10.9-20c-19.45-26.06-45.43-39.62-78-39.61a104.55,104.55,0,0,0-54.41,15.34c-47,28.31-71.32,70.87-76.79,124.82-1.17,11.6-.05,23.19,1.22,34.77,3,27.09-19.31,48.12-44.22,47.39a205.39,205.39,0,0,1-39.29-5.16,957.82,957.82,0,0,1-252.33-95c-29-15.92-56.77-33.81-81.84-55.61-.5-.43-1-1.16-1.92-.82-1.05,1-.39,2.33-.36,3.5a162.94,162.94,0,0,0,8.73,48c14.47,42.73,37.3,80.1,71.37,110.22,12.7,11.22,18,25.56,14.38,42.2-3.53,16.41-14,27.13-30.06,32.14-7.25,2.26-14.68,2-22.13,1.31q-8.58-.84-17.18-1.65c-.17,2,1,3,1.72,4.24A214.22,214.22,0,0,0,643.3,553c11.31,11.73,25,20.44,38,29.93,8,5.8,16.29,10.86,25.74,13.92a37,37,0,0,1,5.48,2.4c16.77,8.65,26.07,27.63,22.9,46.67-3,17.93-17.82,32.13-36.42,34.9-1.19.18-2.58-.08-3.45,1.42,1.7,1.88,4,3,6.06,4.44a117.57,117.57,0,0,0,16.67,9.2c15,6.8,30.95,10.3,47.07,13.05,13.6,2.33,27.21,4.63,41.12,3.8a35.27,35.27,0,0,1,7.57.69c22.66,3.64,38.59,25.38,35.17,48-2,13.25-8.64,23.77-19.24,31.75-11.92,9-24.91,16.27-38.17,23.07-30.6,15.67-62.53,28.09-95.1,38.95C694.58,855.89,692.12,856.09,690.13,858Z" transform="translate(-485.33 -125.87)"/><path class="cls-2" d="M1132.11,311.35a30.79,30.79,0,1,1,30.24,31.39A30.84,30.84,0,0,1,1132.11,311.35Zm46,.34a15.22,15.22,0,0,0-30.44.36,15.22,15.22,0,1,0,30.44-.36Z" transform="translate(-485.33 -125.87)"/></svg>