<svg id="Layer_1" data-name="Layer 1" xmlns="http://www.w3.org/2000/svg" viewBox="0 0 1018.4 798.06"><defs><style>.cls-1{fill:#2d6664;}.cls-2{fill:#336967;}.cls-3{fill:#346b69;}.cls-4{fill:#356b69;}.cls-5{fill:#316867;}</style></defs><path class="cls-1" d="M960.09,952.61q-111.71,0-223.42,0-119.59-.18-239.21-.61c-13,0-24.2-4.2-33.26-13.64-5.66-5.91-8.91-13.05-11-21-2.46-9.27-2.71-18.61-2.67-28.08q.47-128.86.78-257.74.57-197.54,1.3-395.06c.06-12.86.5-25.74.71-38.62.38-22.71,19.46-41.21,42.28-41.4,18.71-.15,37.42,0,56.13.08l529.1,1.51q170.57.49,341.12.93c9.87,0,19.18,1.91,27.3,7.73,13,9.3,19.73,21.92,19.68,38q-.4,109.26-.75,218.51-.4,141.13-.72,282.27-.29,102.44-.61,204.88c0,14.14-5.34,25.81-16.33,34.72a40.47,40.47,0,0,1-25.07,9.29c-1.45,0-2.91,0-4.36,0q-152.58-.37-305.15-.75c-52-.1-103.9,0-155.84,0ZM538.64,278.3c0,2.56,0,4.68,0,6.81q-.5,174.61-1,349.25-.3,112.25-.53,224.49c0,8-.88,6.87,7,6.89q158.55.48,317.11.89l511.63,1.45c1.64,0,3.27-.06,4.91,0,2.08.11,3-.78,2.87-2.87-.06-.91,0-1.82,0-2.73q.54-182.25,1.07-364.51.27-100.53.38-201.06c0-2,.5-4.19-.69-6.43-1.49,1.06-2.67,1.86-3.8,2.73Q1240,399.82,1102.39,506.42c-5.15,4-4.79,2.94-2.76,8.83a142.26,142.26,0,0,1,5.09,75.72c-15.79,78-91.37,130.19-172.16,113.28-85.94-18-135.86-107.89-106.41-190.64,2-5.49,2-5.49-2.65-9.2l-.85-.68Q683.18,392.46,543.7,281.19C542.44,280.19,541.36,278.88,538.64,278.3Zm59.18-35.13-.27,1.23c1.38,1.14,2.75,2.3,4.14,3.41l201.82,161q28.32,22.59,56.65,45.16c3.33,2.66,3.36,2.62,6.64-.2l1.23-1.07c54.25-47.11,136.25-46.75,190.16.82,5.07,4.48,5.06,4.47,10.45.29L1212.89,342.1q59.85-46.38,119.69-92.76c1.28-1,3.07-1.68,3.59-4.13Zm470.46,319.31c-1.1-53.36-43.65-106.55-105.83-105.82-63.87.75-105.87,51.42-105.82,105.61,0,56.49,44.67,106.07,106.09,105.93C1026.12,668.06,1068.77,616.39,1068.28,562.48Z" transform="translate(-450.51 -156.43)"/><path class="cls-2" d="M958.25,341.87a23.46,23.46,0,0,1-10-1.62,11.37,11.37,0,0,1-5.56-4.15,6.86,6.86,0,0,1,.24-8.09c2-2.56,5.18-3.62,8.23-1.93,5.27,2.92,10.38,2.18,15.67.38,4.37-1.49,8.1,0,9.5,3.54s-.17,7.41-4.27,9.3A29.62,29.62,0,0,1,958.25,341.87Z" transform="translate(-450.51 -156.43)"/><path class="cls-3" d="M1066.3,287.55c5.84.13,10.59,5.57,10.33,11.81a10.15,10.15,0,0,1-10.34,9.76c-6-.1-10.51-5.25-10.28-11.72A10.18,10.18,0,0,1,1066.3,287.55Z" transform="translate(-450.51 -156.43)"/><path class="cls-4" d="M867.26,294.57c-.15,5.77-5.22,10.8-10.8,10.7a10,10,0,0,1-9.86-10.63c.23-5.89,5.31-10.73,10.94-10.44A10.35,10.35,0,0,1,867.26,294.57Z" transform="translate(-450.51 -156.43)"/><path class="cls-5" d="M871.12,563.63a91.64,91.64,0,0,1,183.27.55c-.05,50.75-41.32,91.51-92.16,91.35C911.93,655.36,871,614.06,871.12,563.63Zm94.16,25L964,587.8a35.16,35.16,0,0,1-3.25,4.35,44.65,44.65,0,0,1-16.33,10.57,24.15,24.15,0,0,1-15,1.07c-10.2-2.73-16.81-11.31-17.25-23.15-.74-20.11,5.62-37.83,18.76-53.08a45.7,45.7,0,0,1,8.93-7.95c6.05-4.08,12.62-6.25,20-5.67,10.07.8,19.57,8.46,21.4,17.38.94,4.59-1.17,8.6-5.3,10s-8.21-.39-10.27-4.74c-3-6.26-7.31-7.87-13.61-5a24.72,24.72,0,0,0-8.19,6.21c-10.21,11.25-15,24.63-15.45,39.68a18.36,18.36,0,0,0,.67,5.37c1.26,4.51,4.29,6.11,8.75,4.68a29.63,29.63,0,0,0,11.45-7.16,64.4,64.4,0,0,0,10.19-12.72c2.76-4.47,5.4-9,8.1-13.55,3.37-5.62,6.86-7.29,11.45-5.47s6.09,5.3,5,11.76c-.19,1.07-.47,2.12-.69,3.19-1.37,6.78-2.47,13.59-1.7,20.54.29,2.65,0,6.14,2.79,7.16s5-1.51,7-3.34a51.39,51.39,0,0,0,12.79-18.75,96.62,96.62,0,0,0,6.93-38.84,31.93,31.93,0,0,0-4.19-15.06,49.23,49.23,0,0,0-24.18-21.81c-12.56-5.32-25.09-6-38.29-2.56-38.6,9.92-62.76,47.31-55.77,85.91,7.29,40.31,43.51,66.69,83.71,61.56,50.91-6.49,80.47-61.62,57.68-107.62-.52-1-.73-2.42-2.66-2.89.63,9.25-.44,18.17-2,27.08-2.71,15.14-8.28,28.91-18.47,40.61-4.35,5-9.24,9.24-15.64,11.41-10.14,3.44-19-.32-23.39-10.06A85.34,85.34,0,0,1,965.28,588.68Z" transform="translate(-450.51 -156.43)"/></svg>