<svg id="Layer_1" data-name="Layer 1" xmlns="http://www.w3.org/2000/svg" viewBox="0 0 348.52 347.46"><defs><style>.cls-1{fill:#915e6f;}.cls-2{fill:#504c6f;}.cls-3{fill:#f6dede;}.cls-4{fill:#d0997f;}.cls-5{fill:#f2c6ac;}.cls-6{fill:#4a403d;}.cls-7{fill:#665955;}.cls-8{fill:#dcc5c2;}.cls-9{fill:#5d504c;}.cls-10{fill:#ceb6b5;}.cls-11{fill:#746761;}.cls-12{fill:#534743;}.cls-13{fill:#635f84;}.cls-14{fill:#433937;}.cls-15{fill:#efbda6;}</style></defs><path class="cls-1" d="M979,714.92h-7c-4.47-1.93-9.21-.17-13.76-1a360,360,0,0,1-2.09-49.79c0-2-.85-4.62,2.5-5.05l.6,3.94c2,2.46,2.22,5.92,4.71,8.07a4.5,4.5,0,0,0,2,3.85,28.82,28.82,0,0,0,7.64,14.8c3.86,4.09,12,4.71,16.69,1.55a176.9,176.9,0,0,0,42.43-39.95c7.69-10.16,15.39-20.38,22.09-31.19,5.2-8.37,11.12-15.91,20-19.93,7-3.2,11.38-10.57,17.88-14.76a20.2,20.2,0,0,0,1.42-1.75c2.19-2.73,3.29-4.1,3.12-4.28s-3.13,1.72-2.93,2.12,3.33-.84,3.69-1a26.66,26.66,0,0,0,12.61-9.81c.52-.77.89-1.42,1.09-1.78a2.65,2.65,0,0,1,.29-.69,2.92,2.92,0,0,1,1.4-1,3.48,3.48,0,0,0-3.56.7,4.56,4.56,0,0,0-.48.78,25.4,25.4,0,0,1-2.18,2.47,26.8,26.8,0,0,1-12.38,6.77c-1-1.13-2.11-2.89-1.82-4.81.44-2.92,3.75-3.14,8.13-7.07,5.14-4.6,3.41-6.84,8.88-11.45,1.38-1.15,3.8-3,3.38-4.06-.23-.6-1.2-.73-1.25-.73-1.57-.19-3,1.54-3.68,2.42-2.18,2.78-11.57,15.38-14.71,18a4.72,4.72,0,0,1-3.12,1.2,2.31,2.31,0,0,1-1.12-.41,2.41,2.41,0,0,1-.82-1.18,8.29,8.29,0,0,1,0-4.86c1-2.89,3.66-5.31,8.45-9.31,0,0,6.75-5.62,8.43-9.49a3.8,3.8,0,0,0,.23-2.93,2.55,2.55,0,0,0-1-1.05c-1.48-.93-2.51.21-3.42,1.17a9.66,9.66,0,0,0-1.77,2.38c-2,3.9-7,12-12.42,17.31-1.44,1.4-3,2.67-4.6,2.35a3.7,3.7,0,0,1-2.68-2.57c-.47-1.65.48-3.23,1.07-4.17a110.1,110.1,0,0,1,8.68-12.19s4-4.62,4.17-7.71a3.34,3.34,0,0,0-.55-2.09,2.11,2.11,0,0,0-.61-.47,1.73,1.73,0,0,0-.79-.18c-.72.1-1.09,1.63-1.13,1.78-1.31,5.29-5.63,9.32-8.32,14.06-2.19,3.87-6.18,9.32-14.08,16.18-1.09-2.54.31-3.9.74-5.41,1-3.62,2.87-7.17,1.6-11-.4-1.21.14-3.54-2-3.51-1.84,0-2.71,1.56-2.9,3.45-.6,5.78-3.66,10.56-6.38,15.49-2.32,4.19-5.42,8.27-5.51,13.2-.09,4.54-1.75,8-4,11.88-6.94,12-17,21-27.07,30.12-6.84,6.21-14.7,11.31-20.4,18.83-1.77,2.33-3.53,5.45-7.28,5.49-.5-1.21,1.66-2.57-.22-3.69-2.35-5.55-6.2-10.06-10-14.67-2.66-3.27-5.84-6.52-4.85-11.42l2.8.16c8.06.72,16-.39,24-1.34,2.63-.25,5.48.08,7.14-2.72,7.72-5.45,10.43-13.54,11-22.36.26-3.79-.11-8.19-5.07-9.7,1.43-4.18,6-6.79,5.81-11.77A3.87,3.87,0,0,0,1024,565a5.93,5.93,0,0,0-4.63-2.56c-6.11-.59-7.34-4.64-8.17-9.84a64.23,64.23,0,0,1-.29-18.62,47.38,47.38,0,0,1,1-11,171,171,0,0,0,2.85-23l.12-5q0-12,0-23.92a29.9,29.9,0,0,1-.72-4.35c-.19-9.55-2.57-18.7-5-27.86-.89-6.15-3.64-11.73-5.49-17.59-.49-1.56-1.87-2.29-3.15-3-5.46-3.25-9.91-7.77-14.73-11.81-5.46-4.59-11.18-8.17-18.77-6.22l-4.94,2c-9.41,3.87-18.26,8.84-27.07,13.88-5.88,2.15-10.87,5.19-14.08,11-9.12,16.58-11.21,34.64-11.82,53.07-1.49,5.63-2.33,11.49-1.31,17.13,1.06,5.79-1.69,11.15-.77,16.77a30.67,30.67,0,0,0-3.43,9.74L900.86,526c-3.38.8-4.91,4.15-7.94,5.61-6.47,3.14-11.06,8.43-14.95,14.36-3.28,2.68-6.77,5.15-9.78,8.11-2.72,2.66-6.72,4.38-7.33,8.82-4.1,5.59-9,10.73-9.79,18.13-.89,5.28,2.72,6.87,6.72,7.79a33.63,33.63,0,0,1,7.43,2.28c-1.17,4.49-5.52,7.38-5.92,12.34A70.87,70.87,0,0,1,854,624.26q-8,19.74-16,39.47c-2.84-.68-4.21-3.16-6-5.07-81.31-89.16-49.75-231.45,61.61-277.92,86-35.87,186.07,3.42,224.69,88.14,9,19.78,13.83,40.58,15.59,62.17V551c-.1.65-.24,1.31-.29,2-7.21,84.54-66.47,147.84-150.16,160.48C981.94,713.66,980,713.07,979,714.92Z" transform="translate(-786.4 -367.46)"/><path class="cls-2" d="M940,714.92c-1-2.11-3.11-1.46-4.75-1.79-6-1.2-12.06-2.25-18.09-3.35,1.82-14.85,3.15-29.78,5.62-44.52,2-11.75,4.55-23.38,5.38-35.29.07-.33.15-.66.22-1v-2a3.2,3.2,0,0,0,1.64-2.88c.05-4.3.37-8.61.05-12.88a9.25,9.25,0,0,1,3.28-7.9c.88-.83,2-1.57,3-.3a1.64,1.64,0,0,1-.67,2.52c-.95.59-2.67,1.2-1.63,2.45,3.11,3.79,1.81,8.34,2.31,12.48.4,3.31,1.6,3.46,4.07,2.7l1.63.15c2.32,2.81,5.4,1.36,8.2,1.46,2.37.8,6.23-1.63,6.77,3.13l.12,1c.1,1,.2,1.94.31,2.91l1.2,27.16c-3.35.43-2.46,3.08-2.5,5.05a360,360,0,0,0,2.09,49.79c-.08.34-.15.68-.23,1Z" transform="translate(-786.4 -367.46)"/><path class="cls-3" d="M1134.92,551l-1,0q0-10,0-19.93l1,0Z" transform="translate(-786.4 -367.46)"/><path class="cls-4" d="M958,714.92c.08-.34.15-.68.23-1,4.55.85,9.29-.91,13.76,1Z" transform="translate(-786.4 -367.46)"/><path class="cls-3" d="M844.06,670a8.43,8.43,0,0,1-6.1-6.22q8-19.74,16-39.47a70.87,70.87,0,0,0,5.31-20.85c.4-5,4.75-7.85,5.92-12.34,10.43-15.91,18.39-33.61,33.35-46.25l6.37.67,5.93,4.21c-3.35.55-4.64,3.13-5.36,5.92-2.67,10.32-4.78,20.79-4.35,31.49.39,9.44,1.39,18.88,2.55,28.27.51,4.11-.71,8.5,1.89,13.7,3.78-8.59,7-16.19,10.47-23.68,3.18-6.85,5.2-14.27,9.89-20.39.11,5,.63,10-.08,14.93-2,.73-2.29,2.63-3.09,4.25-4.71,9.47-8.37,19.54-15.78,27.47a6.59,6.59,0,0,0-1.73,6c1.22,5.92.65,11.91.72,17.86.07,5.72,1.73,11.57-1,17.13-2.09.58-4-.46-6-.75-1-1.55-2.66-1.77-4.36-1.95C877.81,668.16,860.93,668.53,844.06,670Z" transform="translate(-786.4 -367.46)"/><path class="cls-5" d="M995.18,646.68c3.75,0,5.51-3.16,7.28-5.49,5.7-7.52,13.56-12.62,20.4-18.83,10.09-9.13,20.13-18.1,27.07-30.12,2.22-3.86,3.88-7.34,4-11.88.09-4.93,3.19-9,5.51-13.2,2.72-4.93,5.78-9.71,6.38-15.49.19-1.89,1.06-3.42,2.9-3.45,2.11,0,1.57,2.3,2,3.51,1.27,3.84-.57,7.39-1.6,11-.43,1.51-1.83,2.87-.74,5.41a113.25,113.25,0,0,0,12.49-17.58c1.8-3.24,4.42-6,6.18-9.22,0,0,2.85-5.26,4.86-5.22a2.18,2.18,0,0,1,.79.18,2.11,2.11,0,0,1,.61.47,3.34,3.34,0,0,1,.55,2.09c-.19,3-3.65,7.59-3.65,7.59a57,57,0,0,0-7.12,13.38c-.32.88-.91,2.56-.13,3.2a1.68,1.68,0,0,0,.87.36c2.11.18,5.61-4.2,6.36-5.15,5.88-7.45,8.81-11.17,9.45-12.4a8.86,8.86,0,0,1,1.77-2.38c.91-1,1.94-2.1,3.42-1.17s1.36,2.48.77,4c-1.54,3.91-4.64,6.8-6.87,10.27-3,4.61-7.66,7.5-8.46,10.39,0,.17-.8,3-.8,3h0a7.65,7.65,0,0,0,1.07.54c.87.26,1.93-.77,2.28-1.13a228.67,228.67,0,0,0,15.64-17c1.11-1.12,3.06-3.72,4.93-1.69,1.54,1.67-.25,3.75-1.63,5.17-5,5.16-8.91,10.44-9.45,10.92-5,4.53-8.53,6.91-7.89,8.66a1.79,1.79,0,0,0,.93.93c8.08-3.61,10.85-5.33,11.62-6.21.58-.67,1.23-1.29,1.84-1.93a7,7,0,0,1,1.31-1.17,2.7,2.7,0,0,1,1.73-.69,2.23,2.23,0,0,1,1.57,1,2.12,2.12,0,0,1,.32.9,2.5,2.5,0,0,1-.17,1.21,4.34,4.34,0,0,1-1.56,1.87c-3,2-10.35,9.53-16.86,11.75-1.28.44-1.56,1.65-2.42,2.4-5.81,5.07-10.35,11.34-17.88,14.76-8.83,4-14.75,11.56-20,19.93-6.7,10.81-14.4,21-22.09,31.19a176.9,176.9,0,0,1-42.43,39.95c-4.7,3.16-12.83,2.54-16.69-1.55a28.82,28.82,0,0,1-7.64-14.8c3.24-4.22,7.35-7.61,11.07-11.37C982.87,657.68,989.74,653,995.18,646.68Z" transform="translate(-786.4 -367.46)"/><path class="cls-6" d="M1025.83,569.17c.21,5-4.38,7.59-5.81,11.77-2.06,3.13-3.12,6.44-2.06,10.22.73,2.59-.76,4.16-2.46,5.92-2.75,2.84-6.89,4.91-6.48,9.86a28,28,0,0,0-2.09,8.78c-8,.95-15.92,2.06-24,1.34-2.83-6.52-7.84-11.72-11-18.07,1.92-.07,4.28-2.2,5.47,1.1.36,1-.29,2.7,1.62,2.39,1.67-.28,2.46-1.52,2.37-3.28-.05-1.06-.87-2.26.57-3.19,1.16.72,1.64,3,3.89,1.5,1.68-1.09,3.41-1.56,3.65-4.13.44-4.81,3.74-6.89,7.85-5.21,1.61.66,2.86.27,3.16-1.2.47-2.25,2.24-3.48,3.63-5-1.68-1.27-2.75-.41-3.87.32-4.34,2.85-4.53,2.64-5.9-2.31-1.1-3.94,1.81-7.6.16-11.64a9.89,9.89,0,0,1,.15-7.62c.77-1.87,1.1-4.83-.32-6.26-3.13-3.16-.88-4.93,1-7,1-1.1,2.28-2,2.66-3.54a.42.42,0,0,0,0-.64A2.53,2.53,0,0,1,1000,541c.85,6,0,12.33,2.95,18,.34,2,.59,3.92,1,5.84,1.06,4.56,3.8,7.78,8.37,8.87s8-1.12,10.56-4.79l0-.06C1023.8,569.92,1024.73,570.39,1025.83,569.17Z" transform="translate(-786.4 -367.46)"/><path class="cls-7" d="M907.05,514.05c-.92-5.62,1.83-11,.77-16.77-1-5.64-.18-11.5,1.3-17.13,1.3-.2,3,0,3.41-1.56.76-2.64.49-5.68,3.44-7.32a3,3,0,0,0-.49-1.75c-2.38-3-.2-4.5,2.06-5.79,4-2.29,6.14-6.11,5.75-10.26s-2.1-8.21,3.58-10.15c1-.33.11-1.42,0-2.19-.87-5.51.8-10.84,4.86-13.94,4.4-3.36,3.49-7.07,3.31-11.13,8.81-5,17.66-10,27.06-13.88,0,2.69-.07,5.38-.1,8.06-10.25,4.19-19.86,9.18-25,19.78-2,.73-2.15,2.76-3,4.29-4.55,8-5.46,17.07-7.86,25.71.12,2.28-1.67,3.93-2,6.06a76.26,76.26,0,0,0-4.9,21,19,19,0,0,0-1.12,8,2.11,2.11,0,0,0,0,3l-.14,2.92c-4.33,2.5-3.53,7.24-4.84,11.06C910.75,511.89,909.12,513.63,907.05,514.05Z" transform="translate(-786.4 -367.46)"/><path class="cls-8" d="M964,671.07c-2.49-2.15-2.75-5.61-4.71-8.07,3.63-.17,4.59-2.75,5.17-5.69,2-9.9,4.3-19.74,4.63-29.89,0-1.35,0-2.92,1.1-3.72,3.09-2.23,2.45-5.11,1.73-8.05a25.68,25.68,0,0,1-.82-7.9c2.47,2.49,2.37,6.7,5.76,8.57,1.15,3.34,1.47-.26,2.21-.27l1.13.85c-1,4.9,2.19,8.15,4.85,11.42,3.76,4.61,7.61,9.12,10,14.67q-4.31,3.69-8.59,7.39C978.68,657.05,970.33,663,964,671.07Z" transform="translate(-786.4 -367.46)"/><path class="cls-9" d="M967,400.2c7.59-1.95,13.31,1.63,18.77,6.22,4.82,4,9.27,8.56,14.73,11.81,1.28.76,2.66,1.49,3.15,3,1.85,5.86,4.6,11.44,5.49,17.59-3,2.05-2.09,5.18-2.17,8-.06,2.52,0,5-3.44,5.29-3-8.73-9.82-13.58-17.64-17.45-.41-.2-.69-.69-1-1,.17-8.09-2.56-11.21-11.9-13.58,1.62-2.7,2.56-5.39-.07-8,3.42-2.08,2.77-4.36.25-6.63-1-.87-2.11-1.56-3.17-2.34Z" transform="translate(-786.4 -367.46)"/><path class="cls-10" d="M971.05,607.75a25.68,25.68,0,0,0,.82,7.9c.72,2.94,1.36,5.82-1.73,8.05-1.1.8-1.06,2.37-1.1,3.72-.33,10.15-2.66,20-4.63,29.89-.58,2.94-1.54,5.52-5.17,5.69l-.6-3.94-1.2-27.16c1.87-1.18,1.46-2.12-.31-2.91l-.12-1c1.58-2.43.82-5.15,1-7.75.61-9.72,1-19.47,3.47-29A64.67,64.67,0,0,1,971.05,607.75Z" transform="translate(-786.4 -367.46)"/><path class="cls-11" d="M935,416.06c.18,4.06,1.09,7.77-3.31,11.13-4.06,3.1-5.73,8.43-4.86,13.94.12.77,1,1.86,0,2.19-5.68,1.94-4,5.87-3.58,10.15s-1.74,8-5.75,10.26c-2.26,1.29-4.44,2.74-2.06,5.79a3,3,0,0,1,.49,1.75c-3,1.64-2.68,4.68-3.44,7.32-.43,1.51-2.11,1.36-3.41,1.56.62-18.43,2.71-36.49,11.83-53.07C924.16,421.25,929.15,418.21,935,416.06Z" transform="translate(-786.4 -367.46)"/><path class="cls-12" d="M1003.57,452.16c3.49-.25,3.38-2.77,3.44-5.29.08-2.82-.83-5.95,2.17-8,2.4,9.16,4.78,18.31,5,27.86a29.9,29.9,0,0,0,.72,4.35c-2.57,2.16-3.09,4.94-3.3,8.21-.14,2.23,2.17,6.49-3.22,6.41-.76,0-1.28,1-.77,1.42,3.25,2.64,1.1,6.87,3.23,10.47.89-2,1.67-4.1,4.1-2.59,0,1.67-.08,3.33-.11,5a4.6,4.6,0,0,0-3.37,3.37c-1.26,3.84-3.44,7.19-5.41,10.66-2.38.06-4.71,0-5.94-2.55s1.69-2.26,2.42-3.48c1.81-3,1-5-2.36-5.95l.35-1.19.49-.92-.09,0c1-.11,2.53.45,2.86-.84s-1.22-1.06-2-1.45l0-1.63a10.12,10.12,0,0,0,1.37-5,3.55,3.55,0,0,0,.43-2.86c.07-1.05.15-2.1.23-3.15v-1a.92.92,0,0,0,0-1l1.31-11c.08-.1.22-.2.21-.29a3.84,3.84,0,0,0-.16-.67c0-1,.09-2.08.14-3.12,1.34-4.25.31-8.11-2-11.75A3.78,3.78,0,0,1,1003.57,452.16Z" transform="translate(-786.4 -367.46)"/><path class="cls-11" d="M851.07,581c.75-7.4,5.69-12.54,9.79-18.12-.13,4.39-3.58,7.35-4.88,11.24-.57,1.73-1.68,3.7.87,4.58,2.23.76,4.36.16,5.33-2.3.35-.87,0-2,.34-2.89,2.22-5.64,3.38-12.1,8.26-16,3.21-2.56,4-6.73,7.51-8.89.92-.57.31-1.82-.32-2.66,3.89-5.93,8.48-11.22,14.95-14.36,3-1.46,4.56-4.81,7.94-5.61-1.18,6.37-6.17,10.38-9.55,15.39-2.68,3.95-6.91,6.77-8.44,11.56a6.73,6.73,0,0,0-5.49,3c-4,6.68-8.91,12.86-11,20.56-1.44,5.43-5.12,7.57-10.67,6.09C854.17,582.18,852.63,581.54,851.07,581Z" transform="translate(-786.4 -367.46)"/><path class="cls-7" d="M851.07,581c1.56.54,3.1,1.18,4.69,1.61,5.55,1.48,9.23-.66,10.67-6.09,2-7.7,7-13.88,11-20.56a6.73,6.73,0,0,1,5.49-3c1.34,2.37,2.06.41,2.85-.44,2-2.19,4.08-4.36,6-6.68,2.06-2.54,4.28-2.89,6.89-1-15,12.64-22.92,30.34-33.35,46.25a33.63,33.63,0,0,0-7.43-2.28C853.79,587.87,850.18,586.28,851.07,581Z" transform="translate(-786.4 -367.46)"/><path class="cls-12" d="M898.57,544.82c-2.61-1.91-4.83-1.56-6.89,1-1.88,2.32-3.94,4.49-6,6.68-.79.85-1.51,2.81-2.85.44,1.53-4.79,5.76-7.61,8.44-11.56,3.38-5,8.37-9,9.55-15.39.92-.73,1.84-1.46,2.77-2.18,1.71-.23,5,1.29,4.43-1.8-.57-3.27.52-4.63,3-5.8,1.82-.87,2-2.45,2-4.17,1.31-3.82.51-8.56,4.84-11.06l.18.08c-.5,6.81,4.73,15.34-5.77,19.16a1.22,1.22,0,0,0-.55.81c-1.15,5.17-4.89,9.55-4.67,15.15-1.21,3-6.53,5.07-2.1,9.33Z" transform="translate(-786.4 -367.46)"/><path class="cls-9" d="M1006,514c2-3.47,4.15-6.82,5.41-10.66a4.6,4.6,0,0,1,3.37-3.37,172.67,172.67,0,0,1-2.86,23,9.94,9.94,0,0,0-5.94,11c.41,4.37-1.07,8.58-1.06,13,0,3.21,1.57,6.68.07,9.93-.7.67-1.39,1.35-2.08,2-3-5.68-2.1-12-2.95-18l.87-4,1-5.26c.64-3.27.38-6.94,4-8.87.58-.16,1.44-.39,1-1.06-.28-.48-1.27-.54-1.95-.78l-.06-2,.06-2Z" transform="translate(-786.4 -367.46)"/><path class="cls-7" d="M1009,606.94c-.41-5,3.73-7,6.48-9.86,1.7-1.76,3.19-3.33,2.46-5.92-1.06-3.78,0-7.09,2.06-10.22,5,1.51,5.33,5.91,5.07,9.7-.59,8.82-3.3,16.91-11,22.36C1011.43,611.78,1010.82,608.87,1009,606.94Z" transform="translate(-786.4 -367.46)"/><path class="cls-11" d="M1005,557c1.5-3.25-.06-6.72-.07-9.93,0-4.44,1.47-8.65,1.06-13l4.92-.09a64.23,64.23,0,0,0,.29,18.62c.83,5.2,2.06,9.25,8.17,9.84A5.93,5.93,0,0,1,1024,565l-1.08,3.91,0,.06c-7.66,1.79-12.78-.9-15.23-8.5A6.23,6.23,0,0,0,1005,557Z" transform="translate(-786.4 -367.46)"/><path class="cls-12" d="M971.05,607.75a64.67,64.67,0,0,0-9.58-16.5q-.88-5.19-1.78-10.37c-.49-2.3-1-4.61-1.46-6.91,4.43.08,6.53,1.8,6,6.75-.21,2.11-1.4,5.53,0,6.47,4.34,3,4.34,8.46,7.75,11.8,3.13,6.35,8.14,11.55,11,18.07l-2.8-.16-1.13-.85a1.39,1.39,0,0,0-2.21.27C973.42,614.45,973.52,610.24,971.05,607.75Z" transform="translate(-786.4 -367.46)"/><path class="cls-9" d="M878,545.94c.63.84,1.24,2.09.32,2.66-3.47,2.16-4.3,6.33-7.51,8.89-4.88,3.92-6,10.38-8.26,16-.34.87,0,2-.34,2.89-1,2.46-3.1,3.06-5.33,2.3-2.55-.88-1.44-2.85-.87-4.58,1.3-3.89,4.75-6.85,4.88-11.24.61-4.45,4.61-6.17,7.33-8.83C871.2,551.09,874.69,548.62,878,545.94Z" transform="translate(-786.4 -367.46)"/><path class="cls-10" d="M964,671.07c6.38-8.07,14.73-14,22.42-20.69q4.27-3.71,8.59-7.39c1.88,1.12-.28,2.48.22,3.69-5.44,6.27-12.31,11-18.12,16.87-3.72,3.76-7.83,7.15-11.07,11.37A4.5,4.5,0,0,1,964,671.07Z" transform="translate(-786.4 -367.46)"/><path class="cls-6" d="M1014.91,495c-2.43-1.51-3.21.57-4.1,2.59-2.13-3.6,0-7.83-3.23-10.47-.51-.42,0-1.43.77-1.42,5.39.08,3.08-4.18,3.22-6.41.21-3.27.73-6.05,3.3-8.21Q1014.89,483,1014.91,495Z" transform="translate(-786.4 -367.46)"/><path class="cls-12" d="M967,400.2l3,2.87c-2.49,2.17-1.49,6.53-5,8l-3-.09a4.77,4.77,0,0,1,0-.76c0-2.68.07-5.37.1-8.06Z" transform="translate(-786.4 -367.46)"/><path class="cls-9" d="M913,512c0,1.72-.17,3.3-2,4.17-2.44,1.17-3.53,2.53-3,5.8.54,3.09-2.72,1.57-4.43,1.8a30.41,30.41,0,0,1,3.42-9.74C909.12,513.63,910.75,511.89,913,512Z" transform="translate(-786.4 -367.46)"/><path class="cls-7" d="M1010.92,534,1006,534a9.94,9.94,0,0,1,5.94-11A47.38,47.38,0,0,0,1010.92,534Z" transform="translate(-786.4 -367.46)"/><path class="cls-12" d="M1009,606.94c1.8,1.93,2.41,4.84,5.05,6.06-1.66,2.8-4.51,2.47-7.14,2.72A28,28,0,0,1,1009,606.94Z" transform="translate(-786.4 -367.46)"/><path class="cls-7" d="M1022.93,568.88,1024,565a3.87,3.87,0,0,1,1.82,4.2C1024.73,570.39,1023.8,569.92,1022.93,568.88Z" transform="translate(-786.4 -367.46)"/><path class="cls-8" d="M905,672.65c2.74-5.56,1.08-11.41,1-17.13-.07-5.95.5-11.94-.72-17.86a6.59,6.59,0,0,1,1.73-6c7.41-7.93,11.07-18,15.78-27.47.8-1.62,1.1-3.52,3.09-4.25q1.26,13.54,2.5,27.09c0,.65,0,1.3,0,2l-.22,1c-.83,11.91-3.41,23.54-5.38,35.29-2.47,14.74-3.8,29.67-5.62,44.52L912.91,708c3.52-3.74,1.92-8.82,3.4-13.08s-.29-7.35-2.63-10.53c-2.09-2.85-4.87-3-6.67-.56-4.32,5.76-8.52,11.71-10,19-5.89-2.17-11.84-4.21-17-7.91-1.38-6.37,1.9-9.94,7.36-12.13,4.14-1.67,8.27-3.35,12.48-4.82C902.58,677.08,904.54,675.65,905,672.65Z" transform="translate(-786.4 -367.46)"/><path class="cls-10" d="M897,702.89c1.45-7.32,5.65-13.27,10-19,1.8-2.4,4.58-2.29,6.67.56,2.34,3.18,4.08,6.38,2.63,10.53s.12,9.34-3.4,13.08C907.39,707,902.27,704.78,897,702.89Z" transform="translate(-786.4 -367.46)"/><path class="cls-5" d="M872,690.68A135.31,135.31,0,0,1,848,674c10.16-2.21,20.43-.69,30.65-.86,2.28,0,1.81,1.89,1.12,3.34-1.2,2.54-2.46,5-3.69,7.57C874.29,686,872.53,688,872,690.68Z" transform="translate(-786.4 -367.46)"/><path class="cls-8" d="M876.06,684c1.23-2.52,2.49-5,3.69-7.57.69-1.45,1.16-3.37-1.12-3.34-10.22.17-20.49-1.35-30.65.86a4.93,4.93,0,0,1-3.92-4c16.87-1.42,33.75-1.79,50.62,0,1.7.18,3.31.4,4.36,1.95C891.92,677,884.45,681.36,876.06,684Z" transform="translate(-786.4 -367.46)"/><path class="cls-10" d="M876.06,684c8.39-2.67,15.86-7.07,23-12.13,2,.29,3.86,1.33,6,.75-.45,3-2.41,4.43-5.13,5.38-4.21,1.47-8.34,3.15-12.48,4.82-5.46,2.19-8.74,5.76-7.36,12.13l-8-4.3C872.53,688,874.29,686,876.06,684Z" transform="translate(-786.4 -367.46)"/><path class="cls-8" d="M959.69,580.88q.88,5.19,1.78,10.37c-2.52,9.49-2.86,19.24-3.47,29-.17,2.6.59,5.32-1,7.75-.54-4.76-4.4-2.33-6.77-3.13-2.37-2.53-5-3.68-8.2-1.46l-1.63-.15c-.51-7.92-1.32-15.81-2.34-23.69-1.12-8.61-1.41-17.32-2.06-26,3.65,3.38,7.73,2.76,11.9,1.32C951,578.43,955.82,578.76,959.69,580.88Z" transform="translate(-786.4 -367.46)"/><path class="cls-13" d="M936,573.54c.65,8.67.94,17.38,2.06,26,1,7.88,1.83,15.77,2.34,23.69-2.47.76-3.67.61-4.07-2.7-.5-4.14.8-8.69-2.31-12.48-1-1.25.68-1.86,1.63-2.45a1.64,1.64,0,0,0,.67-2.52c-1-1.27-2.1-.53-3,.3a9.25,9.25,0,0,0-3.28,7.9c.32,4.27,0,8.58-.05,12.88a3.2,3.2,0,0,1-1.64,2.88q-1.25-13.54-2.5-27.09c.71-5,.19-10,.08-14.93.54-5.69-2.24-11.24-.74-17,2.91,3.24,7.21,3.32,10.88,4.8A4.06,4.06,0,0,1,936,573.54Z" transform="translate(-786.4 -367.46)"/><path class="cls-13" d="M942,623.37c3.21-2.22,5.83-1.07,8.2,1.46C947.44,624.73,944.36,626.18,942,623.37Z" transform="translate(-786.4 -367.46)"/><path class="cls-8" d="M957.13,629c1.77.79,2.18,1.73.31,2.91C957.33,630.93,957.23,630,957.13,629Z" transform="translate(-786.4 -367.46)"/><path class="cls-13" d="M928.17,630l.22-1Z" transform="translate(-786.4 -367.46)"/><path class="cls-8" d="M925.22,568c-1.5,5.73,1.28,11.28.74,17-4.69,6.12-6.71,13.54-9.89,20.39-3.47,7.49-6.69,15.09-10.47,23.68-2.6-5.2-1.38-9.59-1.89-13.7-1.16-9.39-2.16-18.83-2.55-28.27-.43-10.7,1.68-21.17,4.35-31.49.72-2.79,2-5.37,5.36-5.92l5.12,2.38,6,8,1.19,1.92c.09.65.17,1.29.25,1.94a3,3,0,0,0,1.56,3.17Z" transform="translate(-786.4 -367.46)"/><path class="cls-7" d="M916,552.08l-5.12-2.38-5.93-4.21c-4.43-4.26.89-6.34,2.1-9.34,4.24-1.27,8.77.93,13-1,1.53,2.91.15,5.37-1.25,7.8C917.11,545.77,915.45,548.59,916,552.08Z" transform="translate(-786.4 -367.46)"/><path class="cls-14" d="M972,599c-3.41-3.34-3.41-8.81-7.75-11.8-1.36-.94-.17-4.36,0-6.47.49-5-1.61-6.67-6-6.75a24.2,24.2,0,0,1-.43-8.44c.07-4.75,4-8.59,3.18-13.55h0c.53-.13,1.34.29,1.4-.68,0-.11-.53-.24-.81-.37,1-5.75,3.74-11,5-16.63s4.21-7.46,9.51-6.61c1,.16,2,.21,3,.31.23,3.32,2.58,3.93,5.24,4,6,.08,11.67,1.45,16.62,5.07l-.87,4a2.53,2.53,0,0,0-1.9,2.18c0,.22,0,.43,0,.65-.38,1.56-1.66,2.44-2.66,3.54-1.88,2.11-4.13,3.88-1,7,1.42,1.43,1.09,4.39.32,6.26a9.89,9.89,0,0,0-.15,7.62c1.65,4-1.26,7.7-.16,11.64,1.37,4.95,1.56,5.16,5.9,2.31,1.12-.73,2.19-1.59,3.87-.32-1.39,1.56-3.16,2.79-3.63,5-.3,1.47-1.55,1.86-3.16,1.2-4.11-1.68-7.41.4-7.85,5.21-.24,2.57-2,3-3.65,4.13-2.25,1.45-2.73-.78-3.89-1.5-1.44.93-.62,2.13-.57,3.19.09,1.76-.7,3-2.37,3.28-1.91.31-1.26-1.42-1.62-2.39C976.26,596.79,973.9,598.92,972,599Z" transform="translate(-786.4 -367.46)"/><path class="cls-7" d="M1005,557a6.23,6.23,0,0,1,2.66,3.45c2.45,7.6,7.57,10.29,15.23,8.5-2.58,3.67-6,5.88-10.56,4.79s-7.31-4.31-8.37-8.87c-.45-1.92-.7-3.89-1-5.84C1003.62,558.34,1004.31,557.66,1005,557Z" transform="translate(-786.4 -367.46)"/><path class="cls-9" d="M998.07,543.84c0-.22,0-.43,0-.65A.43.43,0,0,1,998.07,543.84Z" transform="translate(-786.4 -367.46)"/><path class="cls-14" d="M962,410.24a4.77,4.77,0,0,0,0,.76c-.59,1.5-2.58,3,.33,4.36,2.36,1.11,4.88,2.29,2.41,5.71-.32.45.84,2,1.31,3-1,1.29-3.63,2.05-1.79,4.27,2.42,2.93.4,3.7-1.78,5-5.34,3.28-6.25,6.93-3.32,11.89L958,447l0,0a62.1,62.1,0,0,0-11.77,8.12c-.91,0-7.72-2.61-8.79-3.23a12.83,12.83,0,0,0-2.32-.85,156.08,156.08,0,0,1,1.9-21C942.13,419.42,951.74,414.43,962,410.24Z" transform="translate(-786.4 -367.46)"/><path class="cls-12" d="M937,430a156.08,156.08,0,0,0-1.9,21c-2.81,2.19-2.29,4.84-1,7.55a21.88,21.88,0,0,1,2.57,10.34c-.11,6.12,3.14,11.2,6.46,16.11l0,.24c-3.54,4.83-3.28,6,2.1,9.72l.09,1.31.5,1.68.21,2.05c-2,.46-2.87,1.4-1.91,3.57a42,42,0,0,1,2.1,6.11c.74,2.72,2,5.72-2.48,6.56-3.93.75-4.33-2-4.8-4.74-.36-2.13-.3-4.49-1.23-6.33-1.72-3.4-1.16-5.64,3.29-7.11-3-1.41-5.21-2.78-4.64-5.46,1.05-4.91-.86-4.31-3.87-2.4a11.19,11.19,0,0,1-2.34.83c-1.69-6.67-6.8-4-10.92-4a76.26,76.26,0,0,1,4.9-21c1.94-.19,3.87-.47,5.81-.57,2.39-.13,2.36-2,2.47-3.52.14-1.9-1.44-1.12-2.46-1.25-1.28-.15-2.54-.47-3.81-.72,2.4-8.64,3.31-17.73,7.86-25.71C934.8,432.78,935,430.75,937,430Z" transform="translate(-786.4 -367.46)"/><path class="cls-6" d="M919.15,487.09c4.12,0,9.23-2.68,10.92,4l0,1.94c-7.2-.45-7.57,0-5.1,6.71.63,1.72-.32,2.23-1.58,2.16A48.81,48.81,0,0,1,918,501l-.18-.08c0-1,.09-1.95.14-2.92a2,2,0,0,0,0-3A19,19,0,0,1,919.15,487.09Z" transform="translate(-786.4 -367.46)"/><path class="cls-9" d="M926.06,460c1.27.25,2.53.57,3.81.72,1,.13,2.6-.65,2.46,1.25-.11,1.51-.08,3.39-2.47,3.52-1.94.1-3.87.38-5.81.57C924.39,464,926.18,462.3,926.06,460Z" transform="translate(-786.4 -367.46)"/><path class="cls-12" d="M918,495a2,2,0,0,1,0,3A2.11,2.11,0,0,1,918,495Z" transform="translate(-786.4 -367.46)"/><path class="cls-9" d="M976.81,616.32a1.39,1.39,0,0,1,2.21-.27C978.28,616.06,978,619.66,976.81,616.32Z" transform="translate(-786.4 -367.46)"/><path class="cls-5" d="M945.24,496.32l-.09-1.31c-.07-1.6-.15-3.21-.22-4.81,2-7.61,1-15.46,1.93-23.18.77-6.61,1.35-12.83,8.12-16.29,1.47-.75,2.81-1.81,2.95-3.72l0,0c7-2.19,14.14-4.21,18.93-10.45L978,436l1-.65c1.74-1.43,3.48-2.86,6-1.72.35.35.63.84,1,1,7.82,3.87,14.64,8.72,17.64,17.45a3.78,3.78,0,0,0-.15,4c-2.78-.19-5.54-1.25-8.34-.48-2.29.63-5.86.64-5.51,3.78.39,3.56,3.72,1.55,5.72,1.45,6.75-.36,9.42,1.38,10.09,7l-.14,3.12a1,1,0,0,0,0,1l-1.31,11,0,1v1c-1.64-.53-2.85-2.1-4.76-2,.38-2,.77-4,1.15-6,1.69.35,3.51.81,1.56-1.87-3.65-5-8.68-3.7-11.87,3.12a8.59,8.59,0,0,1-4.17,3.28c-2.83,1.05-3.2,3-2.06,5.46l.25,2-.94,1-1,0-1.86.67c-3.35,2.14-3.46,2.38-2.15,4.49.92,2,2.31,2,4,.94,4.33-.44,6.43-2.46,5-7,1.2-.9,2.53-.56,3,.57,2.17,5.62,7.23,5.57,11.9,6.35l0,1.63,0,.07-.63,1.26-.27,1,.08,0-.48.92-.35,1.19q-2.07,4.51-4.15,9l-.6.86L995,513l-.51.91c-1.43,2.38-3,4.71-4.26,7.15-2.39,4.46-5.68,7.15-11.07,6.14-7.82-3.68-16.53-5.57-23.11-11.77-1.84-1.74-3.42-4.13-6.38-4.31a.56.56,0,0,1-.12-.55l-.64-1.54c-1.64-2.78-.66-6.42-2.93-9l-.21-2.05C945.58,497.44,945.41,496.88,945.24,496.32Zm26.6,12c5.7,5.34,10.65,5.38,14.61.12,2.83-.93,4.27-3.26,6.17-5.53-5.77-1.29-11-2.58-16.54-2-2.49.25-4.59,1.89-7.26,1.5-1.64-.23-4.12-2.4-4.79-.37-.78,2.33,2.54,2.93,4.17,4.15a9.89,9.89,0,0,0,2.28,1Zm-8.47-27.39c1.93-.7,3.69-1.6,4.47-3.69.23-.43.75-1,.63-1.27a8.88,8.88,0,0,0-7.44-5.56c-3.3-.31-6.23,1.73-8.18,4.58-.36.53.57,1,1.21,1.2l3,5.83c-4.71.2-9.23,5.31-8.84,10,.26,3.2,2.74,3.77,5.22,4.34,1.68.39,4,.69,3.94-1.42-.18-3.5,2-4,4.83-4.45-1.75-2.73-3.05-5.21-3-8.11C961,483.07,962.27,482.17,963.37,480.91ZM963,460.66a16.29,16.29,0,0,1,2.17.3c2,.47,4.56,2.39,5.46-.64s-1.71-4.79-4.41-5.54c-5.49-1.54-10,.62-14,4.19-1.13,1-2.17,2.35-1,3.87s2.7.87,4,.12A17.58,17.58,0,0,1,963,460.66Zm3.2,27.64c-.91,0-1.66.42-1.72,1.36a1.77,1.77,0,0,0,1.77,1.95c1.09.1,2-.36,2-1.6S967.28,488.45,966.24,488.3Z" transform="translate(-786.4 -367.46)"/><path class="cls-6" d="M978,436l-1.08.49c-6.25,2.27-11.86,5.84-17.79,8.74-2.93-5-2-8.61,3.32-11.89,2.18-1.33,4.2-2.1,1.78-5-1.84-2.22.83-3,1.79-4.27,3.66,1,6.23.07,7-4h0c9.34,2.37,12.07,5.49,11.9,13.58-2.48-1.14-4.22.29-6,1.72Z" transform="translate(-786.4 -367.46)"/><path class="cls-6" d="M965,411.09c3.56-1.49,2.56-5.85,5-8,1.06.78,2.2,1.47,3.17,2.34,2.52,2.27,3.17,4.55-.25,6.63-2.42-.29-4.9-1-7,1.1v0l-1-1Z" transform="translate(-786.4 -367.46)"/><path class="cls-12" d="M966,413.14c2.06-2.07,4.54-1.39,7-1.1,2.63,2.66,1.69,5.35.07,8h0C969.15,419.28,968,415.73,966,413.14Z" transform="translate(-786.4 -367.46)"/><path class="cls-6" d="M996,511.09q2.09-4.51,4.15-9c3.36,1,4.17,2.92,2.36,5.95-.73,1.22-3.67.9-2.42,3.48s3.56,2.61,5.94,2.55l-1,3c-1.64.63-1.73,1.3-.06,2l.06,2c.3.61.6,1.23.91,1.84-3.63,1.93-3.37,5.6-4,8.87l-1,5.26c-5-3.62-10.58-5-16.62-5.07-2.66,0-5-.65-5.24-4a2.4,2.4,0,0,0,.14-.8c5.39,1,8.68-1.68,11.07-6.14,1.31-2.44,2.83-4.77,4.26-7.15L995,513l.42-1.06Zm2.45,4.1c-2.21.74-3.22,3.13-4.53,5.07-.44.63.66,1.44,1.55,1.44,3.06,0,2.74-3.34,4.45-4.76C1000.65,516.32,999.84,515.5,998.44,515.19Z" transform="translate(-786.4 -367.46)"/><path class="cls-15" d="M1001.8,496.05c-4.67-.78-9.73-.73-11.9-6.35-.44-1.13-1.77-1.47-3-.57-1.12-.64-1.19-2.91-3.25-2.08-1.14-2.51-.77-4.41,2.06-5.46a8.59,8.59,0,0,0,4.17-3.28c3.57-.6,3,3.68,5.27,4.53a4.47,4.47,0,0,0,3.89.22c1.91-.12,3.12,1.45,4.76,2-.08,1-.16,2.1-.23,3.15-.88.18-1.94.21-2,1.43,0,.95.84,1.15,1.54,1.43A10.12,10.12,0,0,1,1001.8,496.05Z" transform="translate(-786.4 -367.46)"/><path class="cls-7" d="M1005.38,468c-.67-5.62-3.34-7.36-10.09-7-2,.1-5.33,2.11-5.72-1.45-.35-3.14,3.22-3.15,5.51-3.78,2.8-.77,5.56.29,8.34.48C1005.69,459.85,1006.72,463.71,1005.38,468Z" transform="translate(-786.4 -367.46)"/><path class="cls-6" d="M1000.89,500l.27-1,.63-1.26,0-.07c.76.39,2.3.23,2,1.45S1001.92,499.86,1000.89,500Z" transform="translate(-786.4 -367.46)"/><path class="cls-5" d="M1003.17,491.05c-.7-.28-1.57-.48-1.54-1.43,0-1.22,1.09-1.25,2-1.43A3.55,3.55,0,0,1,1003.17,491.05Z" transform="translate(-786.4 -367.46)"/><path class="cls-6" d="M1000.49,500.86l.48-.92Z" transform="translate(-786.4 -367.46)"/><path class="cls-15" d="M1003.83,484l0-1A.92.92,0,0,1,1003.83,484Z" transform="translate(-786.4 -367.46)"/><path class="cls-7" d="M1005.19,472a1,1,0,0,1,0-1,3.84,3.84,0,0,1,.16.67C1005.41,471.84,1005.27,471.94,1005.19,472Z" transform="translate(-786.4 -367.46)"/><path class="cls-14" d="M918,501a48.81,48.81,0,0,0,5.33.85c1.26.07,2.21-.44,1.58-2.16-2.47-6.71-2.1-7.16,5.1-6.71,0,2.65,0,5.29,0,7.94,1.5,3.6-.26,7.11-.24,10.61,0,9.46-4.3,19.09.89,28.38a2.15,2.15,0,0,1,.13,1.46A2.74,2.74,0,0,1,930,543a1,1,0,0,1-1.49-.83c-.17-2.43-3.35-3.49-2.42-6.66.77-2.61-1.28-2.45-3-1.44a3.88,3.88,0,0,0-3,1.07c-4.19,2-8.72-.24-13,1-.22-5.59,3.52-10,4.67-15.14a1.22,1.22,0,0,1,.55-.81C922.76,516.38,917.53,507.85,918,501Zm9.27-3.9c0-.48-.22-.58-.57-.25,0,0,.09.27.14.41Z" transform="translate(-786.4 -367.46)"/><path class="cls-12" d="M1005.88,522.92c-.31-.61-.61-1.23-.91-1.84.68.24,1.67.3,1.95.78C1007.32,522.53,1006.46,522.76,1005.88,522.92Z" transform="translate(-786.4 -367.46)"/><path class="cls-12" d="M1004.91,519.06c-1.67-.74-1.58-1.41.06-2Z" transform="translate(-786.4 -367.46)"/><path class="cls-15" d="M957.8,565.53a24.2,24.2,0,0,0,.43,8.44c.48,2.3,1,4.61,1.46,6.91-3.87-2.12-8.65-2.45-11.78-6,1.25-1.75,4-2.18,4.3-4.74C955,569.72,955.19,566.14,957.8,565.53Z" transform="translate(-786.4 -367.46)"/><path class="cls-7" d="M966,413.14c2.07,2.59,3.19,6.14,7,6.94-.77,4.07-3.34,5-7,4-.47-1-1.63-2.56-1.31-3,2.47-3.42,0-4.6-2.41-5.71-2.91-1.36-.92-2.86-.33-4.36l3,.09.06,1,1,1Z" transform="translate(-786.4 -367.46)"/><path class="cls-7" d="M952.21,570.12c-.35,2.56-3.05,3-4.3,4.74-4.17,1.44-8.25,2.06-11.9-1.32a4.06,4.06,0,0,0,.09-.7C941.46,571.83,947,572,952.21,570.12Z" transform="translate(-786.4 -367.46)"/><path class="cls-12" d="M952.21,570.12c-5.21,1.83-10.75,1.71-16.11,2.72-3.67-1.48-8-1.56-10.88-4.8-.08-.32-.17-.64-.26-1,0-1.31-.22-2.52-1.56-3.17-.08-.65-.16-1.29-.25-1.94,1.17-2.18,2.25-4.37,1.27-7.48-2,2-.89,4.28-2.46,5.56l-6-8c-.54-3.49,1.12-6.31,2.76-9.16,1.4-2.43,2.78-4.89,1.25-7.8a3.88,3.88,0,0,1,3-1.07c.22,2.27.6,4.46,0,6.83-1.81,6.86,2.83,14.67,9.68,16.83.6.19,1.3.79,1.7,0,2.5-5.15,7-2.06,10.65-2.71a7.23,7.23,0,0,1-4.17,3.27c-3.72,1-5.85,3.76-8.22,7,2.48-1.09,4,2,6.44.8,10.51-.42,12.12-1.79,14-12.13.36-2,.57-3.92.85-5.89q-1.27-6.76-2.54-13.52c-.47-2.52,0-4.59,2.71-5.58,2.45,7.09,7.89,13.47,5.18,21.84-.34,1,.92,1.06,1.7,1.18.83,5-3.11,8.8-3.18,13.55C955.19,566.14,955,569.72,952.21,570.12Z" transform="translate(-786.4 -367.46)"/><path class="cls-11" d="M922,560c1.57-1.28.46-3.57,2.46-5.56,1,3.11-.1,5.3-1.27,7.48Z" transform="translate(-786.4 -367.46)"/><path class="cls-11" d="M923.4,563.9c1.34.65,1.55,1.86,1.56,3.17A3,3,0,0,1,923.4,563.9Z" transform="translate(-786.4 -367.46)"/><path class="cls-4" d="M961,552c-.78-.12-2-.14-1.7-1.18,2.71-8.37-2.73-14.75-5.18-21.84q-2.24-8.93-4.46-17.83c3,.18,4.54,2.57,6.38,4.31,6.58,6.2,15.29,8.09,23.11,11.77a2.4,2.4,0,0,1-.14.8c-1-.1-2-.15-3-.31-5.3-.85-8.32,1.11-9.51,6.61s-4,10.88-5,16.63l-.59,1Z" transform="translate(-786.4 -367.46)"/><path class="cls-12" d="M961,552l.59-1c.28.13.81.26.81.37C962.31,552.28,961.5,551.86,961,552Z" transform="translate(-786.4 -367.46)"/><path class="cls-6" d="M943.09,485.05c-3.32-4.91-6.57-10-6.46-16.11a21.88,21.88,0,0,0-2.57-10.34c-1.3-2.71-1.82-5.36,1-7.55a12.83,12.83,0,0,1,2.32.85c1.07.62,7.88,3.23,8.79,3.23a9.39,9.39,0,0,1-1,4.91l-.18,1Q944,473,943.09,485.05Z" transform="translate(-786.4 -367.46)"/><path class="cls-15" d="M943.09,485.05q.95-12,1.88-24l.18-1a9.39,9.39,0,0,0,1-4.91A62.1,62.1,0,0,1,957.93,447c-.14,1.91-1.48,3-2.95,3.72-6.77,3.46-7.35,9.68-8.12,16.29-.89,7.72,0,15.57-1.93,23.18q-.93-2.46-1.88-4.91Z" transform="translate(-786.4 -367.46)"/><path class="cls-15" d="M959.1,445.27c5.93-2.9,11.54-6.47,17.79-8.74C972.1,442.77,965,444.79,958,447Z" transform="translate(-786.4 -367.46)"/><path class="cls-9" d="M949.64,511.13Q951.86,520,954.1,529c-2.69,1-3.18,3.06-2.71,5.58q1.26,6.76,2.54,13.52c-1.8,0-2.93.87-4.09,2.24-2.79,3.26-2.17,6.86-1.21,10.29-1.21.83-1.86-.05-2.61-.08-4.46-.16-7.59,2.37-7,5.57-2.42,1.2-4-1.89-6.44-.8,2.37-3.27,4.5-6,8.22-7A7.23,7.23,0,0,0,945,555c1.61-3.55,3-7.11,1-11-.41-2.4,1.12-5.35-2-7v0c-.6-7.45-6.07-12.6-9-19-.36-4-.76-8.08-1.07-12.13-.19-2.59-1.39-4.27-3.94-4.93,0-2.65,0-5.29,0-7.94l0-1.94a11.19,11.19,0,0,0,2.34-.83c3-1.91,4.92-2.51,3.87,2.4-.57,2.68,1.63,4.05,4.64,5.46-4.45,1.47-5,3.71-3.29,7.11.93,1.84.87,4.2,1.23,6.33.47,2.73.87,5.49,4.8,4.74,4.44-.84,3.22-3.84,2.48-6.56a42,42,0,0,0-2.1-6.11c-1-2.17-.08-3.11,1.91-3.57,2.27,2.57,1.29,6.21,2.93,9l.64,1.54A.56.56,0,0,0,949.64,511.13Z" transform="translate(-786.4 -367.46)"/><path class="cls-9" d="M943.05,485.29q.94,2.44,1.88,4.91c.07,1.6.15,3.21.22,4.81C939.77,491.3,939.51,490.12,943.05,485.29Z" transform="translate(-786.4 -367.46)"/><path class="cls-9" d="M945.24,496.32c.17.56.34,1.12.5,1.68C945.58,497.44,945.41,496.88,945.24,496.32Z" transform="translate(-786.4 -367.46)"/><path class="cls-15" d="M959.24,482.39c-.06,2.9,1.24,5.38,3,8.11-2.87.48-5,.95-4.83,4.45.11,2.11-2.26,1.81-3.94,1.42-2.48-.57-5-1.14-5.22-4.34-.39-4.72,4.13-9.83,8.84-10l1.45-.27Z" transform="translate(-786.4 -367.46)"/><path class="cls-9" d="M963,460.66a17.58,17.58,0,0,0-7.76,2.3c-1.33.75-2.87,1.37-4-.12s-.14-2.86,1-3.87c4-3.57,8.53-5.73,14-4.19,2.7.75,5.31,2.47,4.41,5.54s-3.5,1.11-5.46.64A16.29,16.29,0,0,0,963,460.66Z" transform="translate(-786.4 -367.46)"/><path class="cls-4" d="M970.48,507.11a9.45,9.45,0,0,1-2.28-.95c-1.63-1.22-5-1.82-4.17-4.15.67-2,3.15.14,4.79.37,2.67.39,4.77-1.25,7.26-1.5,5.54-.57,10.77.72,16.54,2-1.9,2.27-3.34,4.6-6.17,5.53-.14-.13-.27-.25-.42-.37l-1-1.28c-4.15-3-8.6-1.88-13-1Z" transform="translate(-786.4 -367.46)"/><path class="cls-4" d="M983.68,487.05c2.06-.83,2.13,1.44,3.25,2.08,1.44,4.55-.66,6.57-5,7a4.48,4.48,0,0,0-4-.94c-1.31-2.11-1.2-2.35,2.15-4.49L982,490l1,0c.6,0,1.2-.08.94-1Z" transform="translate(-786.4 -367.46)"/><path class="cls-4" d="M954.06,476.17c-.64-.19-1.57-.67-1.21-1.2,1.95-2.85,4.88-4.89,8.18-4.58a8.88,8.88,0,0,1,7.44,5.56c.12.29-.4.84-.63,1.27L964,476c-1.3-2.51-3.42-2.58-5.77-1.94C956.4,474,955.39,475.39,954.06,476.17Z" transform="translate(-786.4 -367.46)"/><path class="cls-12" d="M958.19,474.09c2.35-.64,4.47-.57,5.77,1.94-.2,1.63-.39,3.26-.59,4.88-1.1,1.26-2.34,2.16-4.13,1.48l-.71-.66A14.68,14.68,0,0,1,958.19,474.09Z" transform="translate(-786.4 -367.46)"/><path class="cls-4" d="M995.18,482.84c-2.32-.85-1.7-5.13-5.27-4.53,3.19-6.82,8.22-8.14,11.87-3.12,2,2.68.13,2.22-1.56,1.87-1.11-1.23-2.23-2.67-4.15-1.64-1.6.87-1.24,2.54-1.2,4C994.9,480.56,995.07,481.7,995.18,482.84Z" transform="translate(-786.4 -367.46)"/><path class="cls-4" d="M986.45,508.42c-4,5.26-8.91,5.22-14.61-.12,4.74.24,9.51,2.35,14.19-.25C986.18,508.17,986.31,508.29,986.45,508.42Z" transform="translate(-786.4 -367.46)"/><path class="cls-9" d="M995.18,482.84c-.11-1.14-.28-2.28-.31-3.43,0-1.45-.4-3.12,1.2-4,1.92-1,3,.41,4.15,1.64-.38,2-.77,4-1.15,6A4.47,4.47,0,0,1,995.18,482.84Z" transform="translate(-786.4 -367.46)"/><path class="cls-11" d="M986,508.05c-4.68,2.6-9.45.49-14.19.25l-1.36-1.18,1.51-1.31,1.22.39,1.4.15a25.13,25.13,0,0,0,10.43.42Z" transform="translate(-786.4 -367.46)"/><path class="cls-8" d="M958.19,474.09a14.68,14.68,0,0,0,.34,7.64l-1.45.27-3-5.83C955.39,475.39,956.4,474,958.19,474.09Z" transform="translate(-786.4 -367.46)"/><path class="cls-15" d="M966.24,488.3c1,.15,2,.47,2,1.71s-.89,1.7-2,1.6a1.77,1.77,0,0,1-1.77-1.95C964.58,488.72,965.33,488.34,966.24,488.3Z" transform="translate(-786.4 -367.46)"/><path class="cls-3" d="M963.37,480.91c.2-1.62.39-3.25.59-4.88l3.88,1.19C967.06,479.31,965.3,480.21,963.37,480.91Z" transform="translate(-786.4 -367.46)"/><path class="cls-15" d="M978,495.2a4.48,4.48,0,0,1,4,.94C980.29,497.21,978.9,497.21,978,495.2Z" transform="translate(-786.4 -367.46)"/><path class="cls-15" d="M982,490l-1.86.67Z" transform="translate(-786.4 -367.46)"/><path class="cls-15" d="M983.93,489.06c.26.88-.34.91-.94,1Z" transform="translate(-786.4 -367.46)"/><path class="cls-12" d="M1001.79,497.75l-.63,1.26Z" transform="translate(-786.4 -367.46)"/><path class="cls-4" d="M949.52,510.58l-.64-1.54Z" transform="translate(-786.4 -367.46)"/><path class="cls-12" d="M996,511.09l-.6.86Z" transform="translate(-786.4 -367.46)"/><path class="cls-12" d="M995,513l-.51.91Z" transform="translate(-786.4 -367.46)"/><path class="cls-15" d="M978,436l1-.65Z" transform="translate(-786.4 -367.46)"/><path class="cls-12" d="M966,413.1l-1-1Z" transform="translate(-786.4 -367.46)"/><path class="cls-12" d="M998.44,515.19c1.4.31,2.21,1.13,1.47,1.75-1.71,1.42-1.39,4.74-4.45,4.76-.89,0-2-.81-1.55-1.44C995.22,518.32,996.23,515.93,998.44,515.19Z" transform="translate(-786.4 -367.46)"/><path class="cls-6" d="M946,544c2,3.89.59,7.45-1,11-3.61.65-8.15-2.44-10.65,2.71-.4.81-1.1.21-1.7,0-6.85-2.16-11.49-10-9.68-16.83.63-2.37.25-4.56,0-6.83,1.77-1,3.82-1.17,3,1.44-.93,3.17,2.25,4.23,2.42,6.66A1,1,0,0,0,930,543a2.74,2.74,0,0,0,.88-1.57,2.15,2.15,0,0,0-.13-1.46c-5.19-9.29-.85-18.92-.89-28.38,0-3.5,1.74-7,.24-10.61,2.55.66,3.75,2.34,3.94,4.93.31,4.05.71,8.09,1.07,12.13-3,1.75-3.8,10.76-1.06,12.28.78.43,2,.09,2.9.28,1.18.24,1.9,1.07.89,2.08-1.38,1.37-2.79,2.65-1.26,4.63s3.31-.33,5-.22A23.12,23.12,0,0,0,944,537v0c.1,2.76,1,6.14-4,3.53-1.58-.82-2.83.66-2.31,2.55.43,1.59,1.14,3.16,3,3.66C943.29,547.45,944.59,545.55,946,544Z" transform="translate(-786.4 -367.46)"/><path class="cls-6" d="M927.3,497.14l-.43.16c0-.14-.18-.37-.14-.41C927.08,496.56,927.28,496.66,927.3,497.14Z" transform="translate(-786.4 -367.46)"/><path class="cls-7" d="M939.05,566.08c-.62-3.2,2.51-5.73,7-5.57.75,0,1.4.91,2.61.08-1-3.43-1.58-7,1.21-10.29,1.16-1.37,2.29-2.27,4.09-2.24-.28,2-.49,3.94-.85,5.89C951.17,564.29,949.56,565.66,939.05,566.08Z" transform="translate(-786.4 -367.46)"/><path class="cls-12" d="M945.15,460l-.18,1Z" transform="translate(-786.4 -367.46)"/><path class="cls-12" d="M944,537a23.12,23.12,0,0,1-2.49.09c-1.69-.11-3.35,2.35-5,.22s-.12-3.26,1.26-4.63c1-1,.29-1.84-.89-2.08-.95-.19-2.12.15-2.9-.28-2.74-1.52-1.9-10.53,1.06-12.28C938,524.38,943.43,529.53,944,537Z" transform="translate(-786.4 -367.46)"/><path class="cls-12" d="M946,544c-1.43,1.57-2.73,3.47-5.32,2.76-1.82-.5-2.53-2.07-3-3.66-.52-1.89.73-3.37,2.31-2.55,5,2.61,4.09-.77,4-3.53C947.14,538.63,945.61,541.58,946,544Z" transform="translate(-786.4 -367.46)"/><path class="cls-10" d="M973.21,506.2l-1.22-.39c4.44-.92,8.89-2,13,1a25.09,25.09,0,0,1-10.42-.42Z" transform="translate(-786.4 -367.46)"/><path class="cls-4" d="M973.21,506.2l1.4.15Z" transform="translate(-786.4 -367.46)"/><path class="cls-1" d="M1110.47,561" transform="translate(-786.4 -367.46)"/></svg>